<svg xmlns="http://www.w3.org/2000/svg" xmlns:xlink="http://www.w3.org/1999/xlink" width="326" zoomAndPan="magnify" viewBox="0 0 244.5 244.499991" height="250" preserveAspectRatio="xMidYMid meet" version="1.0"><defs><clipPath id="5bb703f434"><path d="M 90 180 L 90.414062 180 L 90.414062 181 L 90 181 Z M 90 180 " clip-rule="nonzero"/></clipPath><clipPath id="b950f98cb9"><path d="M 90 179 L 90.414062 179 L 90.414062 180 L 90 180 Z M 90 179 " clip-rule="nonzero"/></clipPath><clipPath id="33dceea292"><path d="M 90 180 L 90.414062 180 L 90.414062 181 L 90 181 Z M 90 180 " clip-rule="nonzero"/></clipPath><clipPath id="10dd8107a2"><path d="M 89 179 L 90.414062 179 L 90.414062 180 L 89 180 Z M 89 179 " clip-rule="nonzero"/></clipPath><clipPath id="c9ae27e89a"><path d="M 89 180 L 90.414062 180 L 90.414062 182 L 89 182 Z M 89 180 " clip-rule="nonzero"/></clipPath><clipPath id="e608baad8a"><path d="M 89 180 L 90.414062 180 L 90.414062 181 L 89 181 Z M 89 180 " clip-rule="nonzero"/></clipPath><clipPath id="014a97b9d1"><path d="M 89 179 L 90.414062 179 L 90.414062 180 L 89 180 Z M 89 179 " clip-rule="nonzero"/></clipPath><clipPath id="cebde9e055"><path d="M 89 180 L 90.414062 180 L 90.414062 181 L 89 181 Z M 89 180 " clip-rule="nonzero"/></clipPath><clipPath id="3484359042"><path d="M 89 179 L 90.414062 179 L 90.414062 180 L 89 180 Z M 89 179 " clip-rule="nonzero"/></clipPath><clipPath id="9af48b1227"><path d="M 89 180 L 90.414062 180 L 90.414062 181 L 89 181 Z M 89 180 " clip-rule="nonzero"/></clipPath><clipPath id="ee0ace174e"><path d="M 89 179 L 90.414062 179 L 90.414062 180 L 89 180 Z M 89 179 " clip-rule="nonzero"/></clipPath><clipPath id="05ba972895"><path d="M 89 180 L 90.414062 180 L 90.414062 181 L 89 181 Z M 89 180 " clip-rule="nonzero"/></clipPath><clipPath id="4af257df6f"><path d="M 89 177.457031 L 90 177.457031 L 90 179 L 89 179 Z M 89 177.457031 " clip-rule="nonzero"/></clipPath><clipPath id="3c7d81124e"><path d="M 89 181 L 90 181 L 90 182.695312 L 89 182.695312 Z M 89 181 " clip-rule="nonzero"/></clipPath><clipPath id="a97da5a5d9"><path d="M 88 181 L 90 181 L 90 182.695312 L 88 182.695312 Z M 88 181 " clip-rule="nonzero"/></clipPath><clipPath id="a38c2c5197"><path d="M 88 181 L 89 181 L 89 182.695312 L 88 182.695312 Z M 88 181 " clip-rule="nonzero"/></clipPath><clipPath id="ef126d3bb7"><path d="M 88 177.457031 L 89 177.457031 L 89 178 L 88 178 Z M 88 177.457031 " clip-rule="nonzero"/></clipPath><clipPath id="1cf74851ac"><path d="M 88 182 L 89 182 L 89 182.695312 L 88 182.695312 Z M 88 182 " clip-rule="nonzero"/></clipPath><clipPath id="7e325b069e"><path d="M 88 177.457031 L 89 177.457031 L 89 179 L 88 179 Z M 88 177.457031 " clip-rule="nonzero"/></clipPath><clipPath id="f8e82aa06e"><path d="M 88 182 L 89 182 L 89 182.695312 L 88 182.695312 Z M 88 182 " clip-rule="nonzero"/></clipPath><clipPath id="64514ffaa4"><path d="M 88 177.457031 L 89 177.457031 L 89 179 L 88 179 Z M 88 177.457031 " clip-rule="nonzero"/></clipPath><clipPath id="0f6af2a0de"><path d="M 88 182 L 89 182 L 89 182.695312 L 88 182.695312 Z M 88 182 " clip-rule="nonzero"/></clipPath><clipPath id="b6287b3c7e"><path d="M 88 177.457031 L 89 177.457031 L 89 178 L 88 178 Z M 88 177.457031 " clip-rule="nonzero"/></clipPath><clipPath id="8bff98a1a8"><path d="M 88 182 L 89 182 L 89 182.695312 L 88 182.695312 Z M 88 182 " clip-rule="nonzero"/></clipPath><clipPath id="f4c1a44400"><path d="M 88 177.457031 L 89 177.457031 L 89 178 L 88 178 Z M 88 177.457031 " clip-rule="nonzero"/></clipPath><clipPath id="c2fb25ba5f"><path d="M 87 182 L 89 182 L 89 182.695312 L 87 182.695312 Z M 87 182 " clip-rule="nonzero"/></clipPath><clipPath id="a75cb95c13"><path d="M 87 177.457031 L 89 177.457031 L 89 178 L 87 178 Z M 87 177.457031 " clip-rule="nonzero"/></clipPath><clipPath id="fdb4d45523"><path d="M 87 182 L 88 182 L 88 182.695312 L 87 182.695312 Z M 87 182 " clip-rule="nonzero"/></clipPath><clipPath id="a797209285"><path d="M 87 177.457031 L 88 177.457031 L 88 178 L 87 178 Z M 87 177.457031 " clip-rule="nonzero"/></clipPath><clipPath id="c598094d83"><path d="M 87 182 L 88 182 L 88 182.695312 L 87 182.695312 Z M 87 182 " clip-rule="nonzero"/></clipPath><clipPath id="cca787f7c8"><path d="M 87 177.457031 L 88 177.457031 L 88 178 L 87 178 Z M 87 177.457031 " clip-rule="nonzero"/></clipPath><clipPath id="9d77223ec8"><path d="M 87 182 L 88 182 L 88 182.695312 L 87 182.695312 Z M 87 182 " clip-rule="nonzero"/></clipPath><clipPath id="5159f65004"><path d="M 87 177.457031 L 88 177.457031 L 88 178 L 87 178 Z M 87 177.457031 " clip-rule="nonzero"/></clipPath><clipPath id="f7fc7b342c"><path d="M 87 182 L 88 182 L 88 182.695312 L 87 182.695312 Z M 87 182 " clip-rule="nonzero"/></clipPath><clipPath id="731c465984"><path d="M 87 177.457031 L 88 177.457031 L 88 178 L 87 178 Z M 87 177.457031 " clip-rule="nonzero"/></clipPath><clipPath id="9ec0beec11"><path d="M 87 177.457031 L 88 177.457031 L 88 179 L 87 179 Z M 87 177.457031 " clip-rule="nonzero"/></clipPath><clipPath id="81ddfd20f5"><path d="M 87 182 L 88 182 L 88 182.695312 L 87 182.695312 Z M 87 182 " clip-rule="nonzero"/></clipPath><clipPath id="d6ce17987c"><path d="M 86 177.457031 L 87 177.457031 L 87 179 L 86 179 Z M 86 177.457031 " clip-rule="nonzero"/></clipPath><clipPath id="085c4c4104"><path d="M 86 182 L 87 182 L 87 182.695312 L 86 182.695312 Z M 86 182 " clip-rule="nonzero"/></clipPath><clipPath id="c263001269"><path d="M 86 177.457031 L 87 177.457031 L 87 178 L 86 178 Z M 86 177.457031 " clip-rule="nonzero"/></clipPath><clipPath id="ef01574907"><path d="M 86 181 L 87 181 L 87 182.695312 L 86 182.695312 Z M 86 181 " clip-rule="nonzero"/></clipPath><clipPath id="9b94cb1cd6"><path d="M 86 181 L 87 181 L 87 182.695312 L 86 182.695312 Z M 86 181 " clip-rule="nonzero"/></clipPath><clipPath id="579355cb47"><path d="M 86 177.457031 L 87 177.457031 L 87 179 L 86 179 Z M 86 177.457031 " clip-rule="nonzero"/></clipPath><clipPath id="fe512b01c5"><path d="M 86 181 L 87 181 L 87 182.695312 L 86 182.695312 Z M 86 181 " clip-rule="nonzero"/></clipPath><clipPath id="4cae4fb519"><path d="M 85.175781 181 L 87 181 L 87 182 L 85.175781 182 Z M 85.175781 181 " clip-rule="nonzero"/></clipPath><clipPath id="fbd8e92a4f"><path d="M 85.175781 178 L 87 178 L 87 179 L 85.175781 179 Z M 85.175781 178 " clip-rule="nonzero"/></clipPath><clipPath id="473a7e61a2"><path d="M 85.175781 181 L 87 181 L 87 182 L 85.175781 182 Z M 85.175781 181 " clip-rule="nonzero"/></clipPath><clipPath id="73b0afdee8"><path d="M 85.175781 178 L 87 178 L 87 179 L 85.175781 179 Z M 85.175781 178 " clip-rule="nonzero"/></clipPath><clipPath id="6861b75114"><path d="M 85.175781 181 L 87 181 L 87 182 L 85.175781 182 Z M 85.175781 181 " clip-rule="nonzero"/></clipPath><clipPath id="1da7bc13ff"><path d="M 85.175781 178 L 86 178 L 86 180 L 85.175781 180 Z M 85.175781 178 " clip-rule="nonzero"/></clipPath><clipPath id="a08f4d0d55"><path d="M 85.175781 181 L 86 181 L 86 182 L 85.175781 182 Z M 85.175781 181 " clip-rule="nonzero"/></clipPath><clipPath id="91879221a0"><path d="M 85.175781 178 L 86 178 L 86 179 L 85.175781 179 Z M 85.175781 178 " clip-rule="nonzero"/></clipPath><clipPath id="1fd95de401"><path d="M 85.175781 181 L 86 181 L 86 182 L 85.175781 182 Z M 85.175781 181 " clip-rule="nonzero"/></clipPath><clipPath id="eee973aab1"><path d="M 85.175781 179 L 86 179 L 86 180 L 85.175781 180 Z M 85.175781 179 " clip-rule="nonzero"/></clipPath><clipPath id="5c26f5ee15"><path d="M 85.175781 180 L 86 180 L 86 181 L 85.175781 181 Z M 85.175781 180 " clip-rule="nonzero"/></clipPath><clipPath id="17cab69eff"><path d="M 85.175781 179 L 86 179 L 86 180 L 85.175781 180 Z M 85.175781 179 " clip-rule="nonzero"/></clipPath><clipPath id="dcc374fd68"><path d="M 85.175781 180 L 86 180 L 86 181 L 85.175781 181 Z M 85.175781 180 " clip-rule="nonzero"/></clipPath><clipPath id="b4404d7ab8"><path d="M 85.175781 179 L 86 179 L 86 180 L 85.175781 180 Z M 85.175781 179 " clip-rule="nonzero"/></clipPath><clipPath id="affa74f7da"><path d="M 85.175781 180 L 86 180 L 86 181 L 85.175781 181 Z M 85.175781 180 " clip-rule="nonzero"/></clipPath><clipPath id="264028b375"><path d="M 85.175781 179 L 86 179 L 86 180 L 85.175781 180 Z M 85.175781 179 " clip-rule="nonzero"/></clipPath><clipPath id="63dcacf6ae"><path d="M 85.175781 180 L 86 180 L 86 182 L 85.175781 182 Z M 85.175781 180 " clip-rule="nonzero"/></clipPath><clipPath id="4e0624759e"><path d="M 85.175781 179 L 86 179 L 86 180 L 85.175781 180 Z M 85.175781 179 " clip-rule="nonzero"/></clipPath><clipPath id="b59d9ba87e"><path d="M 85.175781 180 L 86 180 L 86 181 L 85.175781 181 Z M 85.175781 180 " clip-rule="nonzero"/></clipPath></defs><path fill="#000000" d="M 203.335938 199.265625 C 192.101562 199.265625 183 190.164062 183 178.933594 C 183 167.703125 192.101562 158.601562 203.335938 158.601562 C 214.566406 158.601562 223.667969 167.703125 223.667969 178.933594 C 223.667969 190.164062 214.566406 199.265625 203.335938 199.265625 Z M 234.421875 169.339844 C 233.851562 167.464844 233.070312 165.589844 232.101562 163.761719 L 231.054688 161.777344 L 235.644531 153.738281 L 228.527344 146.621094 L 220.492188 151.214844 L 218.503906 150.164062 C 216.695312 149.210938 214.820312 148.417969 212.929688 147.847656 L 210.800781 147.195312 L 208.371094 138.265625 L 198.296875 138.265625 L 195.867188 147.195312 L 193.738281 147.847656 C 191.847656 148.417969 189.972656 149.210938 188.164062 150.164062 L 186.179688 151.214844 L 178.140625 146.621094 L 171.023438 153.738281 L 175.613281 161.777344 L 174.566406 163.761719 C 173.597656 165.589844 172.816406 167.464844 172.246094 169.339844 L 171.578125 171.46875 L 162.667969 173.914062 L 162.667969 183.953125 L 171.578125 186.398438 L 172.246094 188.527344 C 172.816406 190.402344 173.597656 192.277344 174.566406 194.105469 L 175.613281 196.089844 L 171.023438 204.128906 L 178.140625 211.246094 L 186.179688 206.652344 L 188.164062 207.703125 C 189.972656 208.65625 191.847656 209.433594 193.738281 210.023438 L 195.867188 210.671875 L 198.296875 219.601562 L 208.371094 219.601562 L 210.800781 210.671875 L 212.929688 210.023438 C 214.820312 209.433594 216.695312 208.65625 218.503906 207.703125 L 220.492188 206.652344 L 228.527344 211.246094 L 235.644531 204.128906 L 231.054688 196.089844 L 232.101562 194.105469 C 233.070312 192.277344 233.851562 190.402344 234.421875 188.527344 L 235.089844 186.398438 L 244 183.953125 L 244 173.914062 L 235.089844 171.46875 L 234.421875 169.339844 " fill-opacity="1" fill-rule="nonzero"/><path fill="#000000" d="M 24.398438 142.332031 L 24.398438 219.601562 L 130.132812 219.601562 L 130.132812 138.265625 L 113.867188 138.265625 C 118.347656 138.265625 122 141.921875 122 146.402344 L 122 203.335938 C 122 207.8125 118.347656 211.46875 113.867188 211.46875 L 40.667969 211.46875 C 36.1875 211.46875 32.535156 207.8125 32.535156 203.335938 L 32.535156 146.402344 C 32.535156 141.921875 36.1875 138.265625 40.667969 138.265625 L 109.800781 138.265625 C 104.511719 138.265625 100.03125 134.851562 98.347656 130.132812 L 36.601562 130.132812 C 29.863281 130.132812 24.398438 135.597656 24.398438 142.332031 " fill-opacity="1" fill-rule="nonzero"/><path fill="#000000" d="M 8.132812 231.800781 C 8.132812 238.535156 13.597656 244 20.332031 244 L 134.199219 244 C 140.9375 244 146.402344 238.535156 146.402344 231.800781 L 146.402344 227.734375 L 8.132812 227.734375 L 8.132812 231.800781 " fill-opacity="1" fill-rule="nonzero"/><path fill="#000000" d="M 52.867188 158.601562 L 77.265625 158.601562 L 77.265625 191.132812 L 52.867188 191.132812 Z M 89.46875 187.066406 L 105.734375 187.066406 L 105.734375 195.199219 L 89.46875 195.199219 Z M 89.46875 170.800781 L 105.734375 170.800781 L 105.734375 178.933594 L 89.46875 178.933594 Z M 89.46875 154.535156 L 105.734375 154.535156 L 105.734375 162.667969 L 89.46875 162.667969 Z M 40.667969 203.335938 L 113.867188 203.335938 L 113.867188 146.402344 L 40.667969 146.402344 L 40.667969 203.335938 " fill-opacity="1" fill-rule="nonzero"/><path fill="#000000" d="M 117.933594 52.867188 L 174.867188 52.867188 L 174.867188 117.933594 L 117.933594 117.933594 Z M 187.066406 113.867188 L 219.601562 113.867188 L 219.601562 122 L 187.066406 122 Z M 187.066406 97.601562 L 235.867188 97.601562 L 235.867188 105.734375 L 187.066406 105.734375 Z M 187.066406 81.332031 L 235.867188 81.332031 L 235.867188 89.46875 L 187.066406 89.46875 Z M 191.132812 52.867188 L 231.800781 52.867188 L 231.800781 69.132812 L 191.132812 69.132812 Z M 235.867188 122 L 227.734375 122 L 227.734375 113.867188 L 235.867188 113.867188 Z M 105.734375 126.066406 C 105.734375 128.308594 107.5625 130.132812 109.800781 130.132812 L 239.933594 130.132812 C 242.175781 130.132812 244 128.308594 244 126.066406 L 244 40.667969 L 105.734375 40.667969 L 105.734375 126.066406 " fill-opacity="1" fill-rule="nonzero"/><path fill="#000000" d="M 154.535156 24.398438 L 146.402344 24.398438 L 146.402344 16.265625 L 154.535156 16.265625 Z M 138.265625 24.398438 L 130.132812 24.398438 L 130.132812 16.265625 L 138.265625 16.265625 Z M 122 24.398438 L 113.867188 24.398438 L 113.867188 16.265625 L 122 16.265625 Z M 239.933594 8.132812 L 109.800781 8.132812 C 107.5625 8.132812 105.734375 9.960938 105.734375 12.199219 L 105.734375 32.535156 L 244 32.535156 L 244 12.199219 C 244 9.960938 242.175781 8.132812 239.933594 8.132812 " fill-opacity="1" fill-rule="nonzero"/><path fill="#000000" d="M 19.140625 90.660156 L 24.398438 95.917969 L 37.792969 82.523438 L 43.542969 88.277344 L 24.398438 107.417969 L 13.390625 96.410156 Z M 28.464844 122 C 42.78125 122 54.628906 111.375 56.601562 97.601562 L 97.601562 97.601562 L 97.601562 89.46875 L 56.601562 89.46875 C 54.628906 75.695312 42.78125 65.066406 28.464844 65.066406 C 12.773438 65.066406 0 77.839844 0 93.535156 C 0 109.230469 12.773438 122 28.464844 122 " fill-opacity="1" fill-rule="nonzero"/><path fill="#000000" d="M 19.140625 25.589844 L 24.398438 30.847656 L 37.792969 17.457031 L 43.542969 23.207031 L 24.398438 42.351562 L 13.390625 31.34375 Z M 28.464844 56.933594 C 42.78125 56.933594 54.628906 46.304688 56.601562 32.535156 L 97.601562 32.535156 L 97.601562 24.398438 L 56.601562 24.398438 C 54.628906 10.628906 42.78125 0 28.464844 0 C 12.773438 0 0 12.773438 0 28.464844 C 0 44.160156 12.773438 56.933594 28.464844 56.933594 " fill-opacity="1" fill-rule="nonzero"/><g clip-path="url(#5bb703f434)"><path fill="#e9c261" d="M 90.40625 180.085938 L 90.109375 180.085938 C 90.105469 180.085938 90.101562 180.082031 90.101562 180.078125 C 90.101562 180.070312 90.105469 180.066406 90.109375 180.066406 L 90.40625 180.066406 C 90.410156 180.066406 90.414062 180.070312 90.414062 180.078125 C 90.414062 180.082031 90.410156 180.085938 90.40625 180.085938 " fill-opacity="1" fill-rule="nonzero"/></g><g clip-path="url(#b950f98cb9)"><path fill="#e9c261" d="M 90.066406 179.636719 C 90.0625 179.636719 90.058594 179.632812 90.054688 179.628906 C 90.054688 179.621094 90.058594 179.617188 90.0625 179.613281 L 90.351562 179.558594 C 90.359375 179.558594 90.363281 179.558594 90.363281 179.566406 C 90.367188 179.570312 90.363281 179.578125 90.355469 179.578125 L 90.066406 179.636719 " fill-opacity="1" fill-rule="nonzero"/></g><g clip-path="url(#33dceea292)"><path fill="#e9c261" d="M 90.355469 180.597656 C 90.355469 180.597656 90.351562 180.597656 90.351562 180.597656 L 90.0625 180.539062 C 90.058594 180.539062 90.054688 180.53125 90.054688 180.527344 C 90.058594 180.519531 90.0625 180.515625 90.066406 180.519531 L 90.355469 180.574219 C 90.363281 180.578125 90.367188 180.582031 90.363281 180.589844 C 90.363281 180.59375 90.359375 180.597656 90.355469 180.597656 " fill-opacity="1" fill-rule="nonzero"/></g><g clip-path="url(#10dd8107a2)"><path fill="#e9c261" d="M 89.933594 179.203125 C 89.929688 179.203125 89.925781 179.199219 89.925781 179.195312 C 89.921875 179.191406 89.925781 179.183594 89.929688 179.179688 L 90.203125 179.070312 C 90.207031 179.066406 90.214844 179.070312 90.214844 179.074219 C 90.21875 179.078125 90.214844 179.085938 90.210938 179.089844 L 89.9375 179.199219 C 89.9375 179.199219 89.9375 179.203125 89.933594 179.203125 " fill-opacity="1" fill-rule="nonzero"/></g><g clip-path="url(#c9ae27e89a)"><path fill="#e9c261" d="M 90.207031 181.085938 C 90.203125 181.085938 90.203125 181.085938 90.203125 181.085938 L 89.929688 180.972656 C 89.925781 180.96875 89.921875 180.964844 89.925781 180.960938 C 89.925781 180.953125 89.933594 180.953125 89.9375 180.953125 L 90.210938 181.066406 C 90.214844 181.066406 90.21875 181.074219 90.214844 181.078125 C 90.214844 181.082031 90.210938 181.085938 90.207031 181.085938 " fill-opacity="1" fill-rule="nonzero"/></g><g clip-path="url(#e608baad8a)"><path fill="#e9c261" d="M 90.109375 180.085938 L 89.933594 180.085938 C 89.925781 180.085938 89.921875 180.082031 89.921875 180.078125 C 89.921875 180.070312 89.925781 180.066406 89.933594 180.066406 L 90.109375 180.066406 C 90.117188 180.066406 90.121094 180.070312 90.121094 180.078125 C 90.121094 180.082031 90.117188 180.085938 90.109375 180.085938 " fill-opacity="1" fill-rule="nonzero"/></g><g clip-path="url(#014a97b9d1)"><path fill="#e9c261" d="M 89.921875 179.878906 C 89.917969 179.878906 89.914062 179.875 89.910156 179.867188 C 89.910156 179.863281 89.914062 179.859375 89.921875 179.855469 L 90.097656 179.839844 C 90.105469 179.839844 90.109375 179.84375 90.109375 179.847656 C 90.109375 179.855469 90.105469 179.859375 90.101562 179.859375 L 89.921875 179.878906 " fill-opacity="1" fill-rule="nonzero"/></g><g clip-path="url(#cebde9e055)"><path fill="#e9c261" d="M 90.097656 180.3125 L 89.921875 180.296875 C 89.914062 180.296875 89.910156 180.292969 89.910156 180.285156 C 89.914062 180.28125 89.917969 180.277344 89.921875 180.277344 L 90.101562 180.292969 C 90.105469 180.292969 90.109375 180.300781 90.109375 180.304688 C 90.109375 180.308594 90.105469 180.3125 90.097656 180.3125 " fill-opacity="1" fill-rule="nonzero"/></g><g clip-path="url(#3484359042)"><path fill="#e9c261" d="M 89.890625 179.671875 C 89.886719 179.671875 89.882812 179.667969 89.882812 179.664062 C 89.878906 179.65625 89.882812 179.652344 89.890625 179.648438 L 90.0625 179.613281 C 90.070312 179.613281 90.074219 179.617188 90.078125 179.625 C 90.078125 179.628906 90.074219 179.632812 90.066406 179.636719 L 89.894531 179.671875 C 89.894531 179.671875 89.890625 179.671875 89.890625 179.671875 " fill-opacity="1" fill-rule="nonzero"/></g><g clip-path="url(#9af48b1227)"><path fill="#e9c261" d="M 90.066406 180.539062 C 90.066406 180.539062 90.066406 180.539062 90.0625 180.539062 L 89.890625 180.503906 C 89.882812 180.503906 89.878906 180.496094 89.882812 180.492188 C 89.882812 180.484375 89.886719 180.484375 89.894531 180.484375 L 90.066406 180.519531 C 90.074219 180.519531 90.078125 180.523438 90.078125 180.53125 C 90.074219 180.535156 90.070312 180.539062 90.066406 180.539062 " fill-opacity="1" fill-rule="nonzero"/></g><g clip-path="url(#ee0ace174e)"><path fill="#e9c261" d="M 89.839844 179.46875 C 89.835938 179.46875 89.832031 179.464844 89.832031 179.460938 C 89.828125 179.453125 89.832031 179.449219 89.835938 179.445312 L 90.007812 179.394531 C 90.011719 179.394531 90.019531 179.394531 90.019531 179.402344 C 90.023438 179.40625 90.019531 179.414062 90.015625 179.414062 L 89.84375 179.464844 C 89.84375 179.46875 89.839844 179.46875 89.839844 179.46875 " fill-opacity="1" fill-rule="nonzero"/></g><g clip-path="url(#05ba972895)"><path fill="#e9c261" d="M 90.011719 180.757812 C 90.011719 180.757812 90.007812 180.757812 90.007812 180.757812 L 89.835938 180.707031 C 89.832031 180.707031 89.828125 180.699219 89.832031 180.695312 C 89.832031 180.6875 89.839844 180.6875 89.84375 180.6875 L 90.015625 180.738281 C 90.019531 180.742188 90.023438 180.746094 90.019531 180.753906 C 90.019531 180.757812 90.015625 180.757812 90.011719 180.757812 " fill-opacity="1" fill-rule="nonzero"/></g><path fill="#e9c261" d="M 89.71875 178.800781 C 89.71875 178.800781 89.714844 178.800781 89.710938 178.796875 C 89.707031 178.792969 89.710938 178.785156 89.714844 178.78125 L 89.960938 178.617188 C 89.964844 178.617188 89.96875 178.617188 89.972656 178.621094 C 89.976562 178.625 89.976562 178.632812 89.972656 178.636719 L 89.726562 178.800781 C 89.722656 178.800781 89.722656 178.800781 89.71875 178.800781 " fill-opacity="1" fill-rule="nonzero"/><path fill="#e9c261" d="M 89.964844 181.535156 C 89.964844 181.535156 89.960938 181.535156 89.960938 181.535156 L 89.714844 181.371094 C 89.710938 181.367188 89.707031 181.363281 89.710938 181.355469 C 89.714844 181.351562 89.722656 181.351562 89.726562 181.355469 L 89.972656 181.519531 C 89.976562 181.519531 89.976562 181.527344 89.972656 181.53125 C 89.972656 181.535156 89.96875 181.535156 89.964844 181.535156 " fill-opacity="1" fill-rule="nonzero"/><path fill="#e9c261" d="M 89.933594 180.972656 C 89.933594 180.972656 89.933594 180.972656 89.929688 180.972656 L 89.765625 180.90625 C 89.761719 180.902344 89.757812 180.894531 89.761719 180.890625 C 89.761719 180.886719 89.769531 180.882812 89.773438 180.886719 L 89.9375 180.953125 C 89.945312 180.957031 89.945312 180.960938 89.945312 180.96875 C 89.941406 180.972656 89.9375 180.972656 89.933594 180.972656 " fill-opacity="1" fill-rule="nonzero"/><path fill="#e9c261" d="M 89.769531 179.269531 C 89.765625 179.269531 89.761719 179.265625 89.761719 179.261719 C 89.757812 179.257812 89.761719 179.25 89.765625 179.25 L 89.929688 179.179688 C 89.9375 179.179688 89.941406 179.179688 89.945312 179.1875 C 89.945312 179.191406 89.945312 179.199219 89.9375 179.199219 L 89.773438 179.269531 C 89.773438 179.269531 89.769531 179.269531 89.769531 179.269531 " fill-opacity="1" fill-rule="nonzero"/><path fill="#e9c261" d="M 89.679688 179.078125 C 89.675781 179.078125 89.671875 179.078125 89.671875 179.074219 C 89.667969 179.070312 89.671875 179.0625 89.675781 179.058594 L 89.832031 178.976562 C 89.835938 178.972656 89.84375 178.976562 89.847656 178.980469 C 89.847656 178.984375 89.847656 178.992188 89.84375 178.996094 L 89.683594 179.078125 C 89.683594 179.078125 89.683594 179.078125 89.679688 179.078125 " fill-opacity="1" fill-rule="nonzero"/><path fill="#e9c261" d="M 89.835938 181.179688 C 89.835938 181.179688 89.832031 181.179688 89.832031 181.175781 L 89.675781 181.09375 C 89.671875 181.089844 89.667969 181.085938 89.671875 181.078125 C 89.675781 181.074219 89.679688 181.074219 89.683594 181.074219 L 89.84375 181.160156 C 89.847656 181.160156 89.847656 181.167969 89.847656 181.171875 C 89.84375 181.175781 89.839844 181.179688 89.835938 181.179688 " fill-opacity="1" fill-rule="nonzero"/><path fill="#e9c261" d="M 89.574219 178.898438 C 89.570312 178.898438 89.566406 178.898438 89.5625 178.894531 C 89.558594 178.890625 89.5625 178.882812 89.566406 178.882812 L 89.714844 178.78125 C 89.71875 178.777344 89.726562 178.78125 89.730469 178.785156 C 89.730469 178.789062 89.730469 178.796875 89.726562 178.800781 L 89.578125 178.898438 C 89.578125 178.898438 89.574219 178.898438 89.574219 178.898438 " fill-opacity="1" fill-rule="nonzero"/><path fill="#e9c261" d="M 89.71875 181.375 C 89.71875 181.375 89.714844 181.371094 89.714844 181.371094 L 89.566406 181.273438 C 89.5625 181.269531 89.558594 181.261719 89.5625 181.257812 C 89.566406 181.253906 89.574219 181.253906 89.578125 181.253906 L 89.726562 181.355469 C 89.730469 181.359375 89.730469 181.363281 89.730469 181.367188 C 89.726562 181.371094 89.722656 181.375 89.71875 181.375 " fill-opacity="1" fill-rule="nonzero"/><path fill="#e9c261" d="M 89.433594 178.449219 C 89.429688 178.449219 89.425781 178.449219 89.425781 178.449219 C 89.421875 178.445312 89.421875 178.4375 89.425781 178.433594 L 89.632812 178.226562 C 89.636719 178.21875 89.644531 178.21875 89.648438 178.226562 C 89.652344 178.230469 89.652344 178.234375 89.648438 178.238281 L 89.441406 178.449219 C 89.4375 178.449219 89.433594 178.449219 89.433594 178.449219 " fill-opacity="1" fill-rule="nonzero"/><path fill="#e9c261" d="M 89.640625 181.933594 C 89.636719 181.933594 89.636719 181.929688 89.632812 181.929688 L 89.425781 181.722656 C 89.421875 181.71875 89.421875 181.710938 89.425781 181.707031 C 89.429688 181.703125 89.433594 181.703125 89.441406 181.707031 L 89.648438 181.914062 C 89.652344 181.917969 89.652344 181.925781 89.648438 181.929688 C 89.644531 181.929688 89.644531 181.933594 89.640625 181.933594 " fill-opacity="1" fill-rule="nonzero"/><path fill="#e9c261" d="M 89.585938 181.554688 C 89.582031 181.554688 89.582031 181.554688 89.578125 181.554688 L 89.441406 181.441406 C 89.4375 181.4375 89.433594 181.429688 89.4375 181.425781 C 89.441406 181.421875 89.449219 181.421875 89.453125 181.425781 L 89.589844 181.539062 C 89.597656 181.542969 89.597656 181.546875 89.59375 181.550781 C 89.589844 181.554688 89.585938 181.554688 89.585938 181.554688 " fill-opacity="1" fill-rule="nonzero"/><path fill="#e9c261" d="M 89.445312 178.730469 C 89.445312 178.730469 89.441406 178.730469 89.4375 178.726562 C 89.433594 178.722656 89.4375 178.71875 89.441406 178.714844 L 89.578125 178.601562 C 89.582031 178.597656 89.589844 178.597656 89.59375 178.601562 C 89.597656 178.605469 89.597656 178.613281 89.589844 178.617188 L 89.453125 178.730469 C 89.453125 178.730469 89.449219 178.730469 89.445312 178.730469 " fill-opacity="1" fill-rule="nonzero"/><path fill="#e9c261" d="M 89.304688 178.578125 C 89.304688 178.578125 89.300781 178.574219 89.300781 178.574219 C 89.296875 178.570312 89.296875 178.5625 89.300781 178.558594 L 89.425781 178.433594 C 89.429688 178.429688 89.433594 178.429688 89.441406 178.433594 C 89.445312 178.4375 89.445312 178.445312 89.441406 178.449219 L 89.3125 178.574219 C 89.3125 178.574219 89.308594 178.578125 89.304688 178.578125 " fill-opacity="1" fill-rule="nonzero"/><path fill="#e9c261" d="M 89.433594 181.722656 C 89.429688 181.722656 89.425781 181.722656 89.425781 181.722656 L 89.300781 181.59375 C 89.296875 181.589844 89.296875 181.585938 89.300781 181.582031 C 89.304688 181.578125 89.308594 181.578125 89.3125 181.582031 L 89.441406 181.707031 C 89.445312 181.710938 89.445312 181.71875 89.441406 181.722656 C 89.4375 181.722656 89.433594 181.722656 89.433594 181.722656 " fill-opacity="1" fill-rule="nonzero"/><path fill="#e9c261" d="M 89.152344 178.4375 C 89.148438 178.4375 89.144531 178.433594 89.144531 178.433594 C 89.140625 178.429688 89.140625 178.421875 89.144531 178.417969 L 89.257812 178.28125 C 89.257812 178.277344 89.265625 178.277344 89.269531 178.28125 C 89.273438 178.285156 89.277344 178.289062 89.273438 178.292969 L 89.160156 178.433594 C 89.15625 178.433594 89.152344 178.4375 89.152344 178.4375 " fill-opacity="1" fill-rule="nonzero"/><path fill="#e9c261" d="M 89.265625 181.875 C 89.261719 181.875 89.257812 181.875 89.257812 181.875 L 89.144531 181.734375 C 89.140625 181.730469 89.140625 181.722656 89.144531 181.71875 C 89.148438 181.71875 89.15625 181.71875 89.160156 181.722656 L 89.273438 181.859375 C 89.277344 181.863281 89.273438 181.871094 89.269531 181.875 C 89.269531 181.875 89.265625 181.875 89.265625 181.875 " fill-opacity="1" fill-rule="nonzero"/><g clip-path="url(#4af257df6f)"><path fill="#e9c261" d="M 89.082031 178.164062 C 89.078125 178.164062 89.078125 178.160156 89.074219 178.160156 C 89.070312 178.15625 89.070312 178.152344 89.074219 178.144531 L 89.238281 177.902344 C 89.238281 177.898438 89.246094 177.894531 89.25 177.898438 C 89.253906 177.902344 89.257812 177.910156 89.253906 177.914062 L 89.089844 178.15625 C 89.089844 178.160156 89.085938 178.164062 89.082031 178.164062 " fill-opacity="1" fill-rule="nonzero"/></g><g clip-path="url(#3c7d81124e)"><path fill="#e9c261" d="M 89.246094 182.257812 C 89.242188 182.257812 89.238281 182.253906 89.238281 182.253906 L 89.074219 182.007812 C 89.070312 182.003906 89.070312 181.996094 89.074219 181.992188 C 89.082031 181.988281 89.085938 181.992188 89.089844 181.996094 L 89.253906 182.242188 C 89.257812 182.246094 89.253906 182.253906 89.25 182.253906 C 89.25 182.257812 89.246094 182.257812 89.246094 182.257812 " fill-opacity="1" fill-rule="nonzero"/></g><g clip-path="url(#a97da5a5d9)"><path fill="#e9c261" d="M 89.082031 182.011719 C 89.078125 182.011719 89.074219 182.011719 89.074219 182.007812 L 88.972656 181.859375 C 88.972656 181.855469 88.972656 181.847656 88.976562 181.84375 C 88.980469 181.84375 88.988281 181.84375 88.992188 181.847656 L 89.089844 181.996094 C 89.09375 182 89.09375 182.007812 89.085938 182.011719 C 89.085938 182.011719 89.082031 182.011719 89.082031 182.011719 " fill-opacity="1" fill-rule="nonzero"/></g><path fill="#e9c261" d="M 88.984375 178.3125 C 88.980469 178.3125 88.980469 178.308594 88.976562 178.308594 C 88.972656 178.304688 88.972656 178.300781 88.972656 178.292969 L 89.074219 178.144531 C 89.074219 178.140625 89.082031 178.140625 89.085938 178.144531 C 89.09375 178.148438 89.09375 178.152344 89.089844 178.15625 L 88.992188 178.304688 C 88.988281 178.308594 88.984375 178.3125 88.984375 178.3125 " fill-opacity="1" fill-rule="nonzero"/><path fill="#e9c261" d="M 88.804688 178.203125 C 88.800781 178.203125 88.800781 178.203125 88.796875 178.203125 C 88.792969 178.199219 88.789062 178.191406 88.792969 178.1875 L 88.878906 178.03125 C 88.878906 178.023438 88.886719 178.023438 88.890625 178.027344 C 88.898438 178.027344 88.898438 178.035156 88.894531 178.039062 L 88.8125 178.195312 C 88.808594 178.199219 88.808594 178.203125 88.804688 178.203125 " fill-opacity="1" fill-rule="nonzero"/><g clip-path="url(#a38c2c5197)"><path fill="#e9c261" d="M 88.886719 182.128906 C 88.882812 182.128906 88.878906 182.128906 88.878906 182.125 L 88.792969 181.96875 C 88.789062 181.960938 88.792969 181.957031 88.796875 181.953125 C 88.804688 181.949219 88.808594 181.953125 88.8125 181.957031 L 88.894531 182.113281 C 88.898438 182.117188 88.898438 182.125 88.890625 182.128906 C 88.890625 182.128906 88.886719 182.128906 88.886719 182.128906 " fill-opacity="1" fill-rule="nonzero"/></g><g clip-path="url(#ef126d3bb7)"><path fill="#e9c261" d="M 88.679688 177.949219 C 88.679688 177.949219 88.679688 177.949219 88.675781 177.949219 C 88.671875 177.945312 88.667969 177.9375 88.671875 177.933594 L 88.785156 177.664062 C 88.785156 177.65625 88.792969 177.65625 88.796875 177.65625 C 88.804688 177.660156 88.804688 177.664062 88.804688 177.671875 L 88.691406 177.941406 C 88.691406 177.945312 88.6875 177.949219 88.679688 177.949219 " fill-opacity="1" fill-rule="nonzero"/></g><g clip-path="url(#1cf74851ac)"><path fill="#e9c261" d="M 88.792969 182.496094 C 88.789062 182.496094 88.785156 182.496094 88.785156 182.492188 L 88.671875 182.21875 C 88.667969 182.214844 88.671875 182.207031 88.675781 182.207031 C 88.683594 182.203125 88.6875 182.207031 88.691406 182.210938 L 88.804688 182.484375 C 88.804688 182.488281 88.804688 182.496094 88.796875 182.496094 C 88.796875 182.496094 88.796875 182.496094 88.792969 182.496094 " fill-opacity="1" fill-rule="nonzero"/></g><g clip-path="url(#7e325b069e)"><path fill="#e9c261" d="M 88.613281 178.113281 C 88.613281 178.113281 88.609375 178.113281 88.609375 178.113281 C 88.605469 178.109375 88.601562 178.105469 88.605469 178.097656 L 88.671875 177.933594 C 88.675781 177.929688 88.679688 177.925781 88.683594 177.929688 C 88.691406 177.929688 88.695312 177.9375 88.691406 177.941406 L 88.621094 178.105469 C 88.621094 178.109375 88.617188 178.113281 88.613281 178.113281 " fill-opacity="1" fill-rule="nonzero"/></g><g clip-path="url(#f8e82aa06e)"><path fill="#e9c261" d="M 88.679688 182.226562 C 88.675781 182.226562 88.671875 182.222656 88.671875 182.21875 L 88.605469 182.054688 C 88.601562 182.050781 88.605469 182.042969 88.609375 182.042969 C 88.613281 182.039062 88.621094 182.042969 88.621094 182.046875 L 88.691406 182.210938 C 88.695312 182.21875 88.691406 182.222656 88.683594 182.226562 C 88.683594 182.226562 88.683594 182.226562 88.679688 182.226562 " fill-opacity="1" fill-rule="nonzero"/></g><g clip-path="url(#64514ffaa4)"><path fill="#e9c261" d="M 88.414062 178.042969 C 88.40625 178.039062 88.402344 178.035156 88.40625 178.027344 L 88.457031 177.859375 C 88.460938 177.851562 88.464844 177.851562 88.46875 177.851562 C 88.476562 177.851562 88.480469 177.859375 88.476562 177.863281 L 88.425781 178.035156 C 88.425781 178.039062 88.421875 178.042969 88.414062 178.042969 " fill-opacity="1" fill-rule="nonzero"/></g><g clip-path="url(#0f6af2a0de)"><path fill="#e9c261" d="M 88.46875 182.304688 C 88.464844 182.304688 88.457031 182.300781 88.457031 182.296875 L 88.40625 182.125 C 88.402344 182.121094 88.40625 182.113281 88.414062 182.113281 C 88.417969 182.109375 88.425781 182.113281 88.425781 182.121094 L 88.476562 182.289062 C 88.480469 182.296875 88.476562 182.300781 88.46875 182.300781 C 88.46875 182.304688 88.46875 182.304688 88.46875 182.304688 " fill-opacity="1" fill-rule="nonzero"/></g><g clip-path="url(#b6287b3c7e)"><path fill="#e9c261" d="M 88.246094 177.816406 C 88.238281 177.816406 88.234375 177.808594 88.238281 177.804688 L 88.292969 177.515625 C 88.296875 177.511719 88.300781 177.507812 88.304688 177.507812 C 88.3125 177.507812 88.316406 177.515625 88.316406 177.519531 L 88.257812 177.808594 C 88.257812 177.8125 88.25 177.816406 88.246094 177.816406 " fill-opacity="1" fill-rule="nonzero"/></g><g clip-path="url(#8bff98a1a8)"><path fill="#e9c261" d="M 88.304688 182.648438 C 88.300781 182.648438 88.296875 182.644531 88.292969 182.636719 L 88.238281 182.351562 C 88.234375 182.34375 88.238281 182.339844 88.246094 182.335938 C 88.25 182.335938 88.257812 182.339844 88.257812 182.34375 L 88.316406 182.632812 C 88.316406 182.640625 88.3125 182.644531 88.304688 182.644531 C 88.304688 182.648438 88.304688 182.648438 88.304688 182.648438 " fill-opacity="1" fill-rule="nonzero"/><path fill="#e9c261" d="M 88.246094 182.359375 C 88.242188 182.359375 88.238281 182.355469 88.238281 182.351562 L 88.203125 182.175781 C 88.199219 182.167969 88.203125 182.164062 88.210938 182.164062 C 88.214844 182.160156 88.222656 182.164062 88.222656 182.171875 L 88.257812 182.34375 C 88.257812 182.351562 88.253906 182.355469 88.25 182.359375 C 88.25 182.359375 88.246094 182.359375 88.246094 182.359375 " fill-opacity="1" fill-rule="nonzero"/></g><g clip-path="url(#f4c1a44400)"><path fill="#e9c261" d="M 88.210938 177.992188 C 88.203125 177.988281 88.199219 177.984375 88.203125 177.980469 L 88.238281 177.804688 C 88.238281 177.796875 88.242188 177.796875 88.25 177.796875 C 88.253906 177.796875 88.257812 177.804688 88.257812 177.808594 L 88.222656 177.984375 C 88.222656 177.988281 88.21875 177.992188 88.210938 177.992188 " fill-opacity="1" fill-rule="nonzero"/></g><g clip-path="url(#c2fb25ba5f)"><path fill="#e9c261" d="M 88.023438 182.390625 C 88.015625 182.390625 88.011719 182.386719 88.011719 182.382812 L 87.996094 182.203125 C 87.992188 182.199219 88 182.195312 88.003906 182.191406 C 88.011719 182.191406 88.015625 182.195312 88.015625 182.203125 L 88.03125 182.378906 C 88.035156 182.386719 88.027344 182.390625 88.023438 182.390625 " fill-opacity="1" fill-rule="nonzero"/></g><g clip-path="url(#a75cb95c13)"><path fill="#e9c261" d="M 88.003906 177.960938 C 88 177.960938 87.992188 177.957031 87.996094 177.949219 L 88.011719 177.773438 C 88.011719 177.765625 88.015625 177.761719 88.023438 177.761719 C 88.027344 177.761719 88.035156 177.769531 88.03125 177.773438 L 88.015625 177.953125 C 88.015625 177.957031 88.011719 177.960938 88.003906 177.960938 " fill-opacity="1" fill-rule="nonzero"/></g><g clip-path="url(#fdb4d45523)"><path fill="#e9c261" d="M 87.796875 182.695312 C 87.789062 182.695312 87.785156 182.691406 87.785156 182.6875 L 87.785156 182.390625 C 87.785156 182.386719 87.789062 182.382812 87.796875 182.382812 C 87.800781 182.382812 87.804688 182.386719 87.804688 182.390625 L 87.804688 182.6875 C 87.804688 182.691406 87.800781 182.695312 87.796875 182.695312 " fill-opacity="1" fill-rule="nonzero"/><path fill="#e9c261" d="M 87.796875 182.402344 C 87.789062 182.402344 87.785156 182.398438 87.785156 182.390625 L 87.785156 182.214844 C 87.785156 182.207031 87.789062 182.203125 87.796875 182.203125 C 87.800781 182.203125 87.804688 182.207031 87.804688 182.214844 L 87.804688 182.390625 C 87.804688 182.398438 87.800781 182.402344 87.796875 182.402344 " fill-opacity="1" fill-rule="nonzero"/></g><g clip-path="url(#a797209285)"><path fill="#e9c261" d="M 87.796875 177.949219 C 87.789062 177.949219 87.785156 177.945312 87.785156 177.941406 L 87.785156 177.761719 C 87.785156 177.757812 87.789062 177.75 87.796875 177.75 C 87.800781 177.75 87.804688 177.757812 87.804688 177.761719 L 87.804688 177.941406 C 87.804688 177.945312 87.800781 177.949219 87.796875 177.949219 " fill-opacity="1" fill-rule="nonzero"/><path fill="#e9c261" d="M 87.796875 177.773438 C 87.789062 177.773438 87.785156 177.769531 87.785156 177.761719 L 87.785156 177.46875 C 87.785156 177.460938 87.789062 177.457031 87.796875 177.457031 C 87.800781 177.457031 87.804688 177.460938 87.804688 177.46875 L 87.804688 177.761719 C 87.804688 177.769531 87.800781 177.773438 87.796875 177.773438 " fill-opacity="1" fill-rule="nonzero"/></g><g clip-path="url(#c598094d83)"><path fill="#e9c261" d="M 87.570312 182.390625 C 87.566406 182.390625 87.566406 182.390625 87.566406 182.390625 C 87.5625 182.390625 87.558594 182.386719 87.558594 182.378906 L 87.574219 182.203125 C 87.574219 182.195312 87.582031 182.191406 87.585938 182.191406 C 87.59375 182.195312 87.597656 182.199219 87.597656 182.203125 L 87.578125 182.382812 C 87.578125 182.386719 87.574219 182.390625 87.570312 182.390625 " fill-opacity="1" fill-rule="nonzero"/></g><g clip-path="url(#cca787f7c8)"><path fill="#e9c261" d="M 87.585938 177.960938 C 87.582031 177.960938 87.574219 177.957031 87.574219 177.953125 L 87.558594 177.773438 C 87.558594 177.769531 87.5625 177.761719 87.566406 177.761719 C 87.574219 177.761719 87.578125 177.765625 87.578125 177.773438 L 87.597656 177.949219 C 87.597656 177.957031 87.59375 177.960938 87.585938 177.960938 " fill-opacity="1" fill-rule="nonzero"/></g><g clip-path="url(#9d77223ec8)"><path fill="#e9c261" d="M 87.34375 182.359375 C 87.335938 182.355469 87.332031 182.351562 87.332031 182.34375 L 87.367188 182.171875 C 87.371094 182.164062 87.375 182.160156 87.378906 182.164062 C 87.386719 182.164062 87.390625 182.167969 87.390625 182.175781 L 87.355469 182.351562 C 87.351562 182.355469 87.347656 182.359375 87.34375 182.359375 " fill-opacity="1" fill-rule="nonzero"/></g><g clip-path="url(#5159f65004)"><path fill="#e9c261" d="M 87.378906 177.992188 C 87.375 177.992188 87.371094 177.988281 87.367188 177.984375 L 87.332031 177.808594 C 87.332031 177.804688 87.335938 177.796875 87.34375 177.796875 C 87.347656 177.796875 87.351562 177.796875 87.355469 177.804688 L 87.390625 177.980469 C 87.390625 177.984375 87.386719 177.988281 87.378906 177.992188 " fill-opacity="1" fill-rule="nonzero"/></g><g clip-path="url(#f7fc7b342c)"><path fill="#e9c261" d="M 87.285156 182.648438 C 87.285156 182.648438 87.285156 182.648438 87.285156 182.644531 C 87.277344 182.644531 87.273438 182.640625 87.277344 182.632812 L 87.332031 182.34375 C 87.335938 182.339844 87.339844 182.335938 87.347656 182.335938 C 87.351562 182.339844 87.355469 182.34375 87.355469 182.351562 L 87.296875 182.636719 C 87.296875 182.644531 87.292969 182.648438 87.285156 182.648438 " fill-opacity="1" fill-rule="nonzero"/></g><g clip-path="url(#731c465984)"><path fill="#e9c261" d="M 87.34375 177.816406 C 87.339844 177.816406 87.335938 177.8125 87.332031 177.808594 L 87.277344 177.519531 C 87.273438 177.515625 87.277344 177.507812 87.285156 177.507812 C 87.289062 177.507812 87.296875 177.511719 87.296875 177.515625 L 87.355469 177.804688 C 87.355469 177.808594 87.351562 177.816406 87.347656 177.816406 C 87.34375 177.816406 87.34375 177.816406 87.34375 177.816406 " fill-opacity="1" fill-rule="nonzero"/></g><g clip-path="url(#9ec0beec11)"><path fill="#e9c261" d="M 87.175781 178.042969 C 87.171875 178.042969 87.167969 178.039062 87.164062 178.035156 L 87.113281 177.863281 C 87.113281 177.859375 87.113281 177.851562 87.121094 177.851562 C 87.125 177.851562 87.132812 177.851562 87.132812 177.859375 L 87.183594 178.027344 C 87.1875 178.035156 87.183594 178.039062 87.179688 178.042969 C 87.175781 178.042969 87.175781 178.042969 87.175781 178.042969 " fill-opacity="1" fill-rule="nonzero"/></g><g clip-path="url(#81ddfd20f5)"><path fill="#e9c261" d="M 87.125 182.304688 C 87.121094 182.304688 87.121094 182.304688 87.121094 182.300781 C 87.113281 182.300781 87.113281 182.296875 87.113281 182.289062 L 87.164062 182.121094 C 87.167969 182.113281 87.171875 182.109375 87.179688 182.113281 C 87.183594 182.113281 87.1875 182.121094 87.183594 182.125 L 87.132812 182.296875 C 87.132812 182.300781 87.128906 182.304688 87.125 182.304688 " fill-opacity="1" fill-rule="nonzero"/></g><g clip-path="url(#d6ce17987c)"><path fill="#e9c261" d="M 86.976562 178.113281 C 86.972656 178.113281 86.96875 178.109375 86.96875 178.105469 L 86.898438 177.941406 C 86.898438 177.9375 86.898438 177.929688 86.90625 177.929688 C 86.910156 177.925781 86.917969 177.929688 86.917969 177.933594 L 86.988281 178.097656 C 86.988281 178.105469 86.988281 178.109375 86.980469 178.113281 C 86.980469 178.113281 86.980469 178.113281 86.976562 178.113281 " fill-opacity="1" fill-rule="nonzero"/></g><g clip-path="url(#085c4c4104)"><path fill="#e9c261" d="M 86.910156 182.226562 C 86.90625 182.226562 86.90625 182.226562 86.90625 182.226562 C 86.898438 182.222656 86.898438 182.21875 86.898438 182.210938 L 86.96875 182.046875 C 86.96875 182.042969 86.976562 182.039062 86.980469 182.042969 C 86.988281 182.042969 86.988281 182.050781 86.988281 182.054688 L 86.917969 182.21875 C 86.917969 182.222656 86.914062 182.226562 86.910156 182.226562 " fill-opacity="1" fill-rule="nonzero"/><path fill="#e9c261" d="M 86.796875 182.496094 C 86.796875 182.496094 86.792969 182.496094 86.792969 182.496094 C 86.789062 182.496094 86.785156 182.488281 86.789062 182.484375 L 86.898438 182.210938 C 86.902344 182.207031 86.90625 182.203125 86.914062 182.207031 C 86.917969 182.207031 86.921875 182.214844 86.917969 182.21875 L 86.804688 182.492188 C 86.804688 182.496094 86.800781 182.496094 86.796875 182.496094 " fill-opacity="1" fill-rule="nonzero"/></g><g clip-path="url(#c263001269)"><path fill="#e9c261" d="M 86.910156 177.949219 C 86.90625 177.949219 86.902344 177.945312 86.898438 177.941406 L 86.789062 177.671875 C 86.785156 177.664062 86.789062 177.660156 86.792969 177.65625 C 86.796875 177.65625 86.804688 177.65625 86.804688 177.664062 L 86.917969 177.933594 C 86.921875 177.9375 86.917969 177.945312 86.914062 177.949219 C 86.910156 177.949219 86.910156 177.949219 86.910156 177.949219 " fill-opacity="1" fill-rule="nonzero"/></g><path fill="#e9c261" d="M 86.789062 178.203125 C 86.785156 178.203125 86.78125 178.199219 86.777344 178.195312 L 86.695312 178.039062 C 86.691406 178.035156 86.695312 178.027344 86.699219 178.027344 C 86.703125 178.023438 86.710938 178.023438 86.714844 178.03125 L 86.796875 178.1875 C 86.800781 178.191406 86.796875 178.199219 86.792969 178.203125 C 86.792969 178.203125 86.789062 178.203125 86.789062 178.203125 " fill-opacity="1" fill-rule="nonzero"/><g clip-path="url(#ef01574907)"><path fill="#e9c261" d="M 86.703125 182.128906 C 86.703125 182.128906 86.699219 182.128906 86.699219 182.128906 C 86.695312 182.125 86.691406 182.117188 86.695312 182.113281 L 86.777344 181.957031 C 86.78125 181.953125 86.789062 181.949219 86.792969 181.953125 C 86.796875 181.957031 86.800781 181.960938 86.796875 181.96875 L 86.714844 182.125 C 86.710938 182.128906 86.707031 182.128906 86.703125 182.128906 " fill-opacity="1" fill-rule="nonzero"/></g><path fill="#e9c261" d="M 86.609375 178.3125 C 86.605469 178.3125 86.601562 178.308594 86.597656 178.304688 L 86.5 178.15625 C 86.496094 178.152344 86.5 178.148438 86.503906 178.144531 C 86.507812 178.140625 86.515625 178.140625 86.519531 178.144531 L 86.617188 178.292969 C 86.621094 178.300781 86.617188 178.304688 86.613281 178.308594 C 86.613281 178.308594 86.609375 178.3125 86.609375 178.3125 " fill-opacity="1" fill-rule="nonzero"/><g clip-path="url(#9b94cb1cd6)"><path fill="#e9c261" d="M 86.507812 182.011719 C 86.507812 182.011719 86.503906 182.011719 86.503906 182.011719 C 86.5 182.007812 86.496094 182 86.5 181.996094 L 86.597656 181.847656 C 86.601562 181.84375 86.609375 181.84375 86.613281 181.84375 C 86.617188 181.847656 86.621094 181.855469 86.617188 181.859375 L 86.519531 182.007812 C 86.515625 182.011719 86.511719 182.011719 86.507812 182.011719 " fill-opacity="1" fill-rule="nonzero"/></g><g clip-path="url(#579355cb47)"><path fill="#e9c261" d="M 86.507812 178.164062 C 86.507812 178.164062 86.503906 178.160156 86.5 178.15625 L 86.335938 177.914062 C 86.335938 177.910156 86.335938 177.902344 86.339844 177.898438 C 86.34375 177.894531 86.351562 177.898438 86.355469 177.902344 L 86.519531 178.144531 C 86.519531 178.152344 86.519531 178.15625 86.515625 178.160156 C 86.511719 178.160156 86.511719 178.164062 86.507812 178.164062 " fill-opacity="1" fill-rule="nonzero"/></g><g clip-path="url(#fe512b01c5)"><path fill="#e9c261" d="M 86.347656 182.257812 C 86.34375 182.257812 86.34375 182.257812 86.339844 182.253906 C 86.335938 182.253906 86.335938 182.246094 86.335938 182.242188 L 86.5 181.996094 C 86.503906 181.992188 86.511719 181.988281 86.515625 181.992188 C 86.519531 181.996094 86.519531 182.003906 86.519531 182.007812 L 86.355469 182.253906 C 86.351562 182.253906 86.347656 182.257812 86.347656 182.257812 " fill-opacity="1" fill-rule="nonzero"/></g><path fill="#e9c261" d="M 86.328125 181.875 C 86.324219 181.875 86.320312 181.875 86.320312 181.875 C 86.316406 181.871094 86.316406 181.863281 86.320312 181.859375 L 86.433594 181.722656 C 86.433594 181.71875 86.441406 181.71875 86.445312 181.71875 C 86.449219 181.722656 86.453125 181.730469 86.449219 181.734375 L 86.335938 181.875 C 86.332031 181.875 86.328125 181.875 86.328125 181.875 " fill-opacity="1" fill-rule="nonzero"/><path fill="#e9c261" d="M 86.441406 178.4375 C 86.4375 178.4375 86.433594 178.433594 86.433594 178.433594 L 86.320312 178.292969 C 86.316406 178.289062 86.316406 178.285156 86.320312 178.28125 C 86.324219 178.277344 86.332031 178.277344 86.335938 178.28125 L 86.449219 178.417969 C 86.453125 178.421875 86.449219 178.429688 86.445312 178.433594 C 86.445312 178.433594 86.441406 178.4375 86.441406 178.4375 " fill-opacity="1" fill-rule="nonzero"/><path fill="#e9c261" d="M 86.160156 181.722656 C 86.15625 181.722656 86.152344 181.722656 86.152344 181.722656 C 86.148438 181.71875 86.148438 181.710938 86.152344 181.707031 L 86.277344 181.582031 C 86.28125 181.578125 86.289062 181.578125 86.292969 181.582031 C 86.296875 181.585938 86.296875 181.589844 86.292969 181.59375 L 86.167969 181.722656 C 86.164062 181.722656 86.160156 181.722656 86.160156 181.722656 " fill-opacity="1" fill-rule="nonzero"/><path fill="#e9c261" d="M 86.285156 178.578125 C 86.28125 178.578125 86.277344 178.574219 86.277344 178.574219 L 86.152344 178.449219 C 86.148438 178.445312 86.148438 178.4375 86.152344 178.433594 C 86.15625 178.429688 86.160156 178.429688 86.167969 178.433594 L 86.292969 178.558594 C 86.296875 178.5625 86.296875 178.570312 86.292969 178.574219 C 86.289062 178.574219 86.289062 178.578125 86.285156 178.578125 " fill-opacity="1" fill-rule="nonzero"/><g clip-path="url(#4cae4fb519)"><path fill="#e9c261" d="M 85.949219 181.933594 C 85.949219 181.933594 85.945312 181.929688 85.941406 181.929688 C 85.9375 181.925781 85.9375 181.917969 85.941406 181.914062 L 86.152344 181.707031 C 86.15625 181.703125 86.160156 181.703125 86.167969 181.707031 C 86.171875 181.710938 86.171875 181.71875 86.167969 181.722656 L 85.957031 181.929688 C 85.957031 181.929688 85.953125 181.933594 85.949219 181.933594 " fill-opacity="1" fill-rule="nonzero"/></g><g clip-path="url(#fbd8e92a4f)"><path fill="#e9c261" d="M 86.160156 178.449219 C 86.15625 178.449219 86.152344 178.449219 86.152344 178.449219 L 85.941406 178.238281 C 85.9375 178.234375 85.9375 178.230469 85.941406 178.226562 C 85.945312 178.21875 85.953125 178.21875 85.957031 178.226562 L 86.167969 178.433594 C 86.171875 178.4375 86.171875 178.445312 86.167969 178.449219 C 86.164062 178.449219 86.160156 178.449219 86.160156 178.449219 " fill-opacity="1" fill-rule="nonzero"/><path fill="#e9c261" d="M 86.144531 178.730469 C 86.140625 178.730469 86.140625 178.730469 86.136719 178.730469 L 86 178.617188 C 85.996094 178.613281 85.996094 178.605469 85.996094 178.601562 C 86 178.597656 86.007812 178.597656 86.011719 178.601562 L 86.148438 178.714844 C 86.15625 178.71875 86.15625 178.722656 86.152344 178.726562 C 86.148438 178.730469 86.148438 178.730469 86.144531 178.730469 " fill-opacity="1" fill-rule="nonzero"/></g><g clip-path="url(#473a7e61a2)"><path fill="#e9c261" d="M 86.007812 181.554688 C 86.003906 181.554688 86 181.554688 85.996094 181.550781 C 85.996094 181.546875 85.996094 181.542969 86 181.539062 L 86.136719 181.425781 C 86.140625 181.421875 86.148438 181.421875 86.152344 181.425781 C 86.15625 181.429688 86.15625 181.4375 86.148438 181.441406 L 86.011719 181.554688 C 86.011719 181.554688 86.007812 181.554688 86.007812 181.554688 " fill-opacity="1" fill-rule="nonzero"/></g><g clip-path="url(#73b0afdee8)"><path fill="#e9c261" d="M 86.019531 178.898438 C 86.015625 178.898438 86.015625 178.898438 86.011719 178.898438 L 85.863281 178.800781 C 85.859375 178.796875 85.859375 178.789062 85.863281 178.785156 C 85.863281 178.78125 85.871094 178.777344 85.875 178.78125 L 86.023438 178.882812 C 86.027344 178.882812 86.03125 178.890625 86.027344 178.894531 C 86.023438 178.898438 86.023438 178.898438 86.019531 178.898438 " fill-opacity="1" fill-rule="nonzero"/></g><g clip-path="url(#6861b75114)"><path fill="#e9c261" d="M 85.871094 181.375 C 85.867188 181.375 85.863281 181.371094 85.863281 181.367188 C 85.859375 181.363281 85.859375 181.359375 85.863281 181.355469 L 86.011719 181.253906 C 86.015625 181.253906 86.023438 181.253906 86.027344 181.257812 C 86.03125 181.261719 86.027344 181.269531 86.023438 181.273438 L 85.875 181.371094 C 85.875 181.371094 85.871094 181.375 85.871094 181.375 " fill-opacity="1" fill-rule="nonzero"/></g><g clip-path="url(#1da7bc13ff)"><path fill="#e9c261" d="M 85.910156 179.078125 C 85.910156 179.078125 85.90625 179.078125 85.90625 179.078125 L 85.75 178.996094 C 85.742188 178.992188 85.742188 178.984375 85.746094 178.980469 C 85.746094 178.976562 85.753906 178.972656 85.757812 178.976562 L 85.914062 179.058594 C 85.921875 179.0625 85.921875 179.070312 85.917969 179.074219 C 85.917969 179.078125 85.914062 179.078125 85.910156 179.078125 " fill-opacity="1" fill-rule="nonzero"/></g><g clip-path="url(#a08f4d0d55)"><path fill="#e9c261" d="M 85.753906 181.179688 C 85.75 181.179688 85.746094 181.175781 85.746094 181.171875 C 85.742188 181.167969 85.742188 181.160156 85.75 181.160156 L 85.90625 181.074219 C 85.910156 181.074219 85.917969 181.074219 85.917969 181.078125 C 85.921875 181.085938 85.921875 181.089844 85.914062 181.09375 L 85.757812 181.175781 C 85.757812 181.179688 85.753906 181.179688 85.753906 181.179688 " fill-opacity="1" fill-rule="nonzero"/></g><g clip-path="url(#91879221a0)"><path fill="#e9c261" d="M 85.871094 178.800781 C 85.867188 178.800781 85.867188 178.800781 85.863281 178.800781 L 85.621094 178.636719 C 85.617188 178.632812 85.613281 178.625 85.617188 178.621094 C 85.621094 178.617188 85.628906 178.617188 85.632812 178.617188 L 85.875 178.78125 C 85.882812 178.785156 85.882812 178.792969 85.878906 178.796875 C 85.878906 178.800781 85.875 178.800781 85.871094 178.800781 " fill-opacity="1" fill-rule="nonzero"/></g><g clip-path="url(#1fd95de401)"><path fill="#e9c261" d="M 85.625 181.535156 C 85.621094 181.535156 85.621094 181.535156 85.617188 181.53125 C 85.613281 181.527344 85.617188 181.519531 85.621094 181.519531 L 85.863281 181.355469 C 85.871094 181.351562 85.875 181.351562 85.878906 181.355469 C 85.882812 181.363281 85.882812 181.367188 85.875 181.371094 L 85.632812 181.535156 C 85.628906 181.535156 85.628906 181.535156 85.625 181.535156 " fill-opacity="1" fill-rule="nonzero"/></g><g clip-path="url(#eee973aab1)"><path fill="#e9c261" d="M 85.820312 179.269531 C 85.820312 179.269531 85.816406 179.269531 85.816406 179.269531 L 85.652344 179.199219 C 85.648438 179.199219 85.644531 179.191406 85.648438 179.1875 C 85.648438 179.179688 85.65625 179.179688 85.660156 179.179688 L 85.824219 179.25 C 85.832031 179.25 85.832031 179.257812 85.832031 179.261719 C 85.828125 179.265625 85.824219 179.269531 85.820312 179.269531 " fill-opacity="1" fill-rule="nonzero"/></g><g clip-path="url(#5c26f5ee15)"><path fill="#e9c261" d="M 85.65625 180.972656 C 85.652344 180.972656 85.648438 180.972656 85.648438 180.96875 C 85.644531 180.960938 85.648438 180.957031 85.652344 180.953125 L 85.816406 180.886719 C 85.820312 180.882812 85.828125 180.886719 85.832031 180.890625 C 85.832031 180.894531 85.832031 180.902344 85.824219 180.90625 L 85.660156 180.972656 C 85.660156 180.972656 85.65625 180.972656 85.65625 180.972656 " fill-opacity="1" fill-rule="nonzero"/><path fill="#e9c261" d="M 85.578125 180.757812 C 85.574219 180.757812 85.570312 180.757812 85.570312 180.753906 C 85.566406 180.746094 85.570312 180.742188 85.578125 180.738281 L 85.746094 180.6875 C 85.753906 180.6875 85.757812 180.6875 85.761719 180.695312 C 85.761719 180.699219 85.757812 180.707031 85.753906 180.707031 L 85.582031 180.757812 C 85.582031 180.757812 85.582031 180.757812 85.578125 180.757812 " fill-opacity="1" fill-rule="nonzero"/></g><g clip-path="url(#17cab69eff)"><path fill="#e9c261" d="M 85.75 179.46875 C 85.75 179.46875 85.75 179.46875 85.746094 179.464844 L 85.578125 179.414062 C 85.570312 179.414062 85.566406 179.40625 85.570312 179.402344 C 85.570312 179.394531 85.578125 179.394531 85.582031 179.394531 L 85.753906 179.445312 C 85.757812 179.449219 85.761719 179.453125 85.761719 179.460938 C 85.757812 179.464844 85.753906 179.46875 85.75 179.46875 " fill-opacity="1" fill-rule="nonzero"/><path fill="#e9c261" d="M 85.699219 179.671875 L 85.523438 179.636719 C 85.515625 179.632812 85.511719 179.628906 85.515625 179.625 C 85.515625 179.617188 85.519531 179.613281 85.527344 179.613281 L 85.703125 179.648438 C 85.707031 179.652344 85.710938 179.65625 85.710938 179.664062 C 85.707031 179.667969 85.703125 179.671875 85.699219 179.671875 " fill-opacity="1" fill-rule="nonzero"/></g><g clip-path="url(#dcc374fd68)"><path fill="#e9c261" d="M 85.523438 180.539062 C 85.519531 180.539062 85.515625 180.535156 85.515625 180.53125 C 85.511719 180.523438 85.515625 180.519531 85.523438 180.519531 L 85.699219 180.484375 C 85.703125 180.484375 85.707031 180.484375 85.710938 180.492188 C 85.710938 180.496094 85.707031 180.503906 85.703125 180.503906 L 85.527344 180.539062 C 85.527344 180.539062 85.527344 180.539062 85.523438 180.539062 " fill-opacity="1" fill-rule="nonzero"/></g><g clip-path="url(#b4404d7ab8)"><path fill="#e9c261" d="M 85.667969 179.878906 L 85.492188 179.859375 C 85.484375 179.859375 85.480469 179.855469 85.480469 179.847656 C 85.480469 179.84375 85.488281 179.839844 85.492188 179.839844 L 85.667969 179.855469 C 85.675781 179.859375 85.679688 179.863281 85.679688 179.867188 C 85.679688 179.875 85.675781 179.878906 85.667969 179.878906 " fill-opacity="1" fill-rule="nonzero"/></g><g clip-path="url(#affa74f7da)"><path fill="#e9c261" d="M 85.492188 180.3125 C 85.488281 180.3125 85.480469 180.308594 85.480469 180.304688 C 85.480469 180.300781 85.484375 180.292969 85.492188 180.292969 L 85.667969 180.277344 C 85.671875 180.277344 85.679688 180.28125 85.679688 180.285156 C 85.679688 180.292969 85.675781 180.296875 85.667969 180.296875 L 85.492188 180.3125 " fill-opacity="1" fill-rule="nonzero"/><path fill="#e9c261" d="M 85.660156 180.085938 L 85.480469 180.085938 C 85.476562 180.085938 85.46875 180.082031 85.46875 180.078125 C 85.46875 180.070312 85.476562 180.066406 85.480469 180.066406 L 85.660156 180.066406 C 85.664062 180.066406 85.667969 180.070312 85.667969 180.078125 C 85.667969 180.082031 85.664062 180.085938 85.660156 180.085938 " fill-opacity="1" fill-rule="nonzero"/></g><g clip-path="url(#264028b375)"><path fill="#e9c261" d="M 85.65625 179.203125 C 85.65625 179.203125 85.652344 179.199219 85.652344 179.199219 L 85.382812 179.089844 C 85.375 179.085938 85.371094 179.078125 85.375 179.074219 C 85.378906 179.070312 85.382812 179.066406 85.390625 179.070312 L 85.660156 179.179688 C 85.664062 179.183594 85.667969 179.191406 85.664062 179.195312 C 85.664062 179.199219 85.660156 179.203125 85.65625 179.203125 " fill-opacity="1" fill-rule="nonzero"/></g><g clip-path="url(#63dcacf6ae)"><path fill="#e9c261" d="M 85.386719 181.085938 C 85.378906 181.085938 85.375 181.082031 85.375 181.078125 C 85.371094 181.074219 85.375 181.066406 85.382812 181.066406 L 85.652344 180.953125 C 85.65625 180.953125 85.664062 180.953125 85.664062 180.960938 C 85.667969 180.964844 85.664062 180.96875 85.660156 180.972656 L 85.390625 181.085938 C 85.386719 181.085938 85.386719 181.085938 85.386719 181.085938 " fill-opacity="1" fill-rule="nonzero"/></g><g clip-path="url(#4e0624759e)"><path fill="#e9c261" d="M 85.523438 179.636719 L 85.234375 179.578125 C 85.230469 179.578125 85.226562 179.570312 85.226562 179.566406 C 85.226562 179.558594 85.234375 179.558594 85.238281 179.558594 L 85.527344 179.613281 C 85.53125 179.617188 85.535156 179.621094 85.535156 179.628906 C 85.535156 179.632812 85.53125 179.636719 85.523438 179.636719 " fill-opacity="1" fill-rule="nonzero"/></g><g clip-path="url(#b59d9ba87e)"><path fill="#e9c261" d="M 85.238281 180.597656 C 85.230469 180.597656 85.226562 180.59375 85.226562 180.589844 C 85.226562 180.582031 85.230469 180.578125 85.234375 180.574219 L 85.523438 180.519531 C 85.527344 180.515625 85.535156 180.519531 85.535156 180.527344 C 85.535156 180.53125 85.53125 180.539062 85.527344 180.539062 L 85.238281 180.597656 " fill-opacity="1" fill-rule="nonzero"/><path fill="#e9c261" d="M 85.480469 180.085938 L 85.1875 180.085938 C 85.179688 180.085938 85.175781 180.082031 85.175781 180.078125 C 85.175781 180.070312 85.179688 180.066406 85.1875 180.066406 L 85.480469 180.066406 C 85.488281 180.066406 85.492188 180.070312 85.492188 180.078125 C 85.492188 180.082031 85.488281 180.085938 85.480469 180.085938 " fill-opacity="1" fill-rule="nonzero"/></g></svg>