<svg xmlns="http://www.w3.org/2000/svg" xmlns:xlink="http://www.w3.org/1999/xlink" width="300" zoomAndPan="magnify" viewBox="0 0 375 374.999991" height="300" preserveAspectRatio="xMidYMid meet" version="1.0"><defs><g/><clipPath id="2bbc824289"><path d="M 11.054688 183 L 21 183 L 21 193 L 11.054688 193 Z M 11.054688 183 " clip-rule="nonzero"/></clipPath><clipPath id="f01364e6cb"><path d="M 27 145.96875 L 81 145.96875 L 81 170 L 27 170 Z M 27 145.96875 " clip-rule="nonzero"/></clipPath><clipPath id="ab3ed915b6"><path d="M 27 205 L 81 205 L 81 229.21875 L 27 229.21875 Z M 27 205 " clip-rule="nonzero"/></clipPath><clipPath id="c70d5f74e9"><path d="M 89 182 L 103.304688 182 L 103.304688 185 L 89 185 Z M 89 182 " clip-rule="nonzero"/></clipPath><clipPath id="6874808c18"><path d="M 57 171 L 88 171 L 88 201.84375 L 57 201.84375 Z M 57 171 " clip-rule="nonzero"/></clipPath><clipPath id="80aca0ab9b"><path d="M 56.929688 170.34375 L 88.429688 170.34375 L 88.429688 201.84375 L 56.929688 201.84375 Z M 56.929688 170.34375 " clip-rule="nonzero"/></clipPath></defs><path fill="#232323" d="M 17.503906 161.210938 C 15.011719 161.210938 12.988281 159.183594 12.988281 156.695312 C 12.988281 154.203125 15.011719 152.175781 17.503906 152.175781 C 19.992188 152.175781 22.019531 154.203125 22.019531 156.695312 C 22.019531 159.183594 19.992188 161.210938 17.503906 161.210938 Z M 17.503906 154.542969 C 16.316406 154.542969 15.351562 155.507812 15.351562 156.695312 C 15.351562 157.878906 16.316406 158.847656 17.503906 158.847656 C 18.691406 158.847656 19.65625 157.878906 19.65625 156.695312 C 19.65625 155.507812 18.691406 154.542969 17.503906 154.542969 " fill-opacity="1" fill-rule="nonzero"/><g clip-path="url(#2bbc824289)"><path fill="#232323" d="M 15.652344 192.113281 C 13.160156 192.113281 11.136719 190.085938 11.136719 187.597656 C 11.136719 185.105469 13.160156 183.078125 15.652344 183.078125 C 18.144531 183.078125 20.167969 185.105469 20.167969 187.597656 C 20.167969 190.085938 18.144531 192.113281 15.652344 192.113281 Z M 15.652344 185.445312 C 14.464844 185.445312 13.5 186.410156 13.5 187.597656 C 13.5 188.78125 14.464844 189.746094 15.652344 189.746094 C 16.839844 189.746094 17.804688 188.78125 17.804688 187.597656 C 17.804688 186.410156 16.839844 185.445312 15.652344 185.445312 " fill-opacity="1" fill-rule="nonzero"/></g><path fill="#232323" d="M 65.734375 208.855469 C 61 208.855469 56.515625 207.332031 52.773438 204.449219 L 54.21875 202.574219 C 57.542969 205.136719 61.523438 206.488281 65.734375 206.488281 C 76.152344 206.488281 84.628906 198.011719 84.628906 187.597656 C 84.628906 177.175781 76.152344 168.699219 65.734375 168.699219 C 61.523438 168.699219 57.542969 170.054688 54.21875 172.613281 L 52.773438 170.742188 C 56.515625 167.859375 61 166.335938 65.734375 166.335938 C 77.457031 166.335938 86.992188 175.875 86.992188 187.597656 C 86.992188 199.316406 77.457031 208.855469 65.734375 208.855469 " fill-opacity="1" fill-rule="nonzero"/><path fill="#232323" d="M 80.847656 193.523438 L 78.644531 192.660156 C 79.28125 191.046875 79.601562 189.34375 79.601562 187.597656 C 79.601562 184.074219 78.277344 180.714844 75.867188 178.136719 L 77.597656 176.523438 C 80.414062 179.542969 81.964844 183.472656 81.964844 187.597656 C 81.964844 189.640625 81.589844 191.632812 80.847656 193.523438 " fill-opacity="1" fill-rule="nonzero"/><path fill="#232323" d="M 77.597656 198.667969 L 75.867188 197.054688 C 76.351562 196.535156 76.800781 195.972656 77.199219 195.386719 L 79.152344 196.71875 C 78.6875 197.40625 78.164062 198.0625 77.597656 198.667969 " fill-opacity="1" fill-rule="nonzero"/><g clip-path="url(#f01364e6cb)"><path fill="#232323" d="M 29.65625 169.332031 L 27.292969 169.332031 L 27.292969 150.09375 C 27.292969 147.820312 29.144531 145.96875 31.417969 145.96875 L 76.378906 145.96875 C 78.652344 145.96875 80.507812 147.820312 80.507812 150.09375 L 80.507812 167.921875 L 78.140625 167.921875 L 78.140625 150.09375 C 78.140625 149.121094 77.351562 148.332031 76.378906 148.332031 L 31.417969 148.332031 C 30.449219 148.332031 29.65625 149.121094 29.65625 150.09375 L 29.65625 169.332031 " fill-opacity="1" fill-rule="nonzero"/></g><g clip-path="url(#ab3ed915b6)"><path fill="#232323" d="M 76.378906 229.222656 L 31.417969 229.222656 C 29.144531 229.222656 27.292969 227.371094 27.292969 225.097656 L 27.292969 205.855469 L 29.65625 205.855469 L 29.65625 225.097656 C 29.65625 226.066406 30.449219 226.859375 31.417969 226.859375 L 76.378906 226.859375 C 77.351562 226.859375 78.140625 226.066406 78.140625 225.097656 L 78.140625 207.269531 L 80.507812 207.269531 L 80.507812 225.097656 C 80.507812 227.371094 78.652344 229.222656 76.378906 229.222656 " fill-opacity="1" fill-rule="nonzero"/></g><path fill="#232323" d="M 34.089844 169.332031 L 31.726562 169.332031 L 31.726562 155.921875 C 31.726562 155.269531 32.257812 154.738281 32.910156 154.738281 L 74.886719 154.738281 C 75.542969 154.738281 76.070312 155.269531 76.070312 155.921875 L 76.070312 165.523438 L 73.707031 165.523438 L 73.707031 157.101562 L 34.089844 157.101562 L 34.089844 169.332031 " fill-opacity="1" fill-rule="nonzero"/><path fill="#232323" d="M 74.886719 220.453125 L 32.910156 220.453125 C 32.257812 220.453125 31.726562 219.921875 31.726562 219.269531 L 31.726562 205.855469 L 34.089844 205.855469 L 34.089844 218.085938 L 73.707031 218.085938 L 73.707031 209.691406 L 76.070312 209.691406 L 76.070312 219.269531 C 76.070312 219.921875 75.542969 220.453125 74.886719 220.453125 " fill-opacity="1" fill-rule="nonzero"/><path fill="#232323" d="M 42.066406 224.835938 L 36.054688 224.835938 L 36.054688 222.472656 L 42.066406 222.472656 L 42.066406 224.835938 " fill-opacity="1" fill-rule="nonzero"/><path fill="#232323" d="M 71.742188 224.835938 L 65.734375 224.835938 L 65.734375 222.472656 L 71.742188 222.472656 L 71.742188 224.835938 " fill-opacity="1" fill-rule="nonzero"/><path fill="#232323" d="M 56.902344 224.835938 L 50.894531 224.835938 L 50.894531 222.472656 L 56.902344 222.472656 L 56.902344 224.835938 " fill-opacity="1" fill-rule="nonzero"/><path fill="#232323" d="M 57.742188 152.71875 L 50.054688 152.71875 L 50.054688 150.351562 L 57.742188 150.351562 L 57.742188 152.71875 " fill-opacity="1" fill-rule="nonzero"/><path fill="#232323" d="M 60.722656 152.71875 C 60.414062 152.71875 60.105469 152.589844 59.890625 152.371094 C 59.667969 152.152344 59.539062 151.847656 59.539062 151.535156 C 59.539062 151.226562 59.667969 150.921875 59.890625 150.699219 C 60.105469 150.480469 60.414062 150.351562 60.722656 150.351562 C 61.035156 150.351562 61.339844 150.480469 61.558594 150.699219 C 61.78125 150.921875 61.90625 151.226562 61.90625 151.535156 C 61.90625 151.84375 61.78125 152.152344 61.558594 152.371094 C 61.339844 152.589844 61.035156 152.71875 60.722656 152.71875 " fill-opacity="1" fill-rule="nonzero"/><path fill="#232323" d="M 59.097656 213.949219 L 48.699219 213.949219 C 48.046875 213.949219 47.519531 213.417969 47.519531 212.765625 L 47.519531 162.425781 C 47.519531 161.769531 48.046875 161.242188 48.699219 161.242188 L 59.097656 161.242188 C 59.75 161.242188 60.277344 161.769531 60.277344 162.425781 L 60.277344 165.292969 L 57.914062 165.292969 L 57.914062 163.605469 L 49.882812 163.605469 L 49.882812 211.582031 L 57.914062 211.582031 L 57.914062 209.898438 L 60.277344 209.898438 L 60.277344 212.765625 C 60.277344 213.417969 59.75 213.949219 59.097656 213.949219 " fill-opacity="1" fill-rule="nonzero"/><path fill="#232323" d="M 92.460938 175.542969 L 85.808594 175.542969 L 85.808594 173.175781 L 92.460938 173.175781 L 92.460938 175.542969 " fill-opacity="1" fill-rule="nonzero"/><path fill="#232323" d="M 99.261719 175.542969 L 96.304688 175.542969 L 96.304688 173.175781 L 99.261719 173.175781 L 99.261719 175.542969 " fill-opacity="1" fill-rule="nonzero"/><g clip-path="url(#c70d5f74e9)"><path fill="#232323" d="M 103.226562 184.367188 L 89.136719 184.367188 L 89.136719 182 L 103.226562 182 L 103.226562 184.367188 " fill-opacity="1" fill-rule="nonzero"/></g><path fill="#232323" d="M 94.753906 193.191406 L 89.136719 193.191406 L 89.136719 190.824219 L 94.753906 190.824219 L 94.753906 193.191406 " fill-opacity="1" fill-rule="nonzero"/><path fill="#232323" d="M 100.519531 193.191406 L 97.5625 193.191406 L 97.5625 190.824219 L 100.519531 190.824219 L 100.519531 193.191406 " fill-opacity="1" fill-rule="nonzero"/><path fill="#232323" d="M 99.039062 202.015625 L 85.808594 202.015625 L 85.808594 199.648438 L 99.039062 199.648438 L 99.039062 202.015625 " fill-opacity="1" fill-rule="nonzero"/><path fill="#232323" d="M 43.675781 175.542969 L 23.484375 175.542969 C 23.171875 175.542969 22.871094 175.417969 22.648438 175.195312 L 16.667969 169.214844 C 16.445312 168.992188 16.320312 168.691406 16.320312 168.375 L 16.320312 160.027344 L 18.6875 160.027344 L 18.6875 167.886719 L 23.976562 173.175781 L 43.675781 173.175781 L 43.675781 175.542969 " fill-opacity="1" fill-rule="nonzero"/><path fill="#232323" d="M 17.503906 223.015625 C 15.011719 223.015625 12.988281 220.988281 12.988281 218.496094 C 12.988281 216.007812 15.011719 213.980469 17.503906 213.980469 C 19.992188 213.980469 22.019531 216.007812 22.019531 218.496094 C 22.019531 220.988281 19.992188 223.015625 17.503906 223.015625 Z M 17.503906 216.34375 C 16.316406 216.34375 15.351562 217.308594 15.351562 218.496094 C 15.351562 219.683594 16.316406 220.648438 17.503906 220.648438 C 18.691406 220.648438 19.65625 219.683594 19.65625 218.496094 C 19.65625 217.308594 18.691406 216.34375 17.503906 216.34375 " fill-opacity="1" fill-rule="nonzero"/><path fill="#232323" d="M 18.6875 215.160156 L 16.320312 215.160156 L 16.320312 206.8125 C 16.320312 206.5 16.445312 206.199219 16.667969 205.976562 L 22.648438 199.996094 C 22.871094 199.773438 23.171875 199.648438 23.484375 199.648438 L 43.675781 199.648438 L 43.675781 202.015625 L 23.976562 202.015625 L 18.6875 207.304688 L 18.6875 215.160156 " fill-opacity="1" fill-rule="nonzero"/><path fill="#232323" d="M 43.675781 188.777344 L 18.988281 188.777344 L 18.988281 186.414062 L 43.675781 186.414062 L 43.675781 188.777344 " fill-opacity="1" fill-rule="nonzero"/><path fill="#232323" d="M 43.675781 182.160156 L 26.773438 182.160156 L 26.773438 179.796875 L 43.675781 179.796875 L 43.675781 182.160156 " fill-opacity="1" fill-rule="nonzero"/><path fill="#232323" d="M 43.675781 195.394531 L 26.773438 195.394531 L 26.773438 193.03125 L 43.675781 193.03125 L 43.675781 195.394531 " fill-opacity="1" fill-rule="nonzero"/><path fill="#232323" d="M 67.984375 198.8125 L 61.390625 198.8125 C 60.738281 198.8125 60.207031 198.285156 60.207031 197.632812 L 60.207031 186.960938 C 60.207031 186.308594 60.738281 185.78125 61.390625 185.78125 L 67.984375 185.78125 C 71.578125 185.78125 74.503906 188.703125 74.503906 192.296875 C 74.503906 195.890625 71.578125 198.8125 67.984375 198.8125 Z M 62.574219 196.449219 L 67.984375 196.449219 C 70.277344 196.449219 72.136719 194.585938 72.136719 192.296875 C 72.136719 190.007812 70.277344 188.144531 67.984375 188.144531 L 62.574219 188.144531 L 62.574219 196.449219 " fill-opacity="1" fill-rule="nonzero"/><path fill="#232323" d="M 67.082031 188.144531 L 61.390625 188.144531 C 60.738281 188.144531 60.207031 187.613281 60.207031 186.960938 L 60.207031 177.558594 C 60.207031 176.90625 60.738281 176.375 61.390625 176.375 L 67.082031 176.375 C 70.324219 176.375 72.964844 179.015625 72.964844 182.261719 C 72.964844 185.503906 70.324219 188.144531 67.082031 188.144531 Z M 62.574219 185.78125 L 67.082031 185.78125 C 69.023438 185.78125 70.601562 184.203125 70.601562 182.261719 C 70.601562 180.320312 69.023438 178.742188 67.082031 178.742188 L 62.574219 178.742188 L 62.574219 185.78125 " fill-opacity="1" fill-rule="nonzero"/><path fill="#232323" d="M 64.304688 201.625 L 61.941406 201.625 L 61.941406 197.632812 L 64.304688 197.632812 L 64.304688 201.625 " fill-opacity="1" fill-rule="nonzero"/><path fill="#232323" d="M 68.109375 201.625 L 65.746094 201.625 L 65.746094 197.632812 L 68.109375 197.632812 L 68.109375 201.625 " fill-opacity="1" fill-rule="nonzero"/><path fill="#232323" d="M 68.109375 177.558594 L 65.746094 177.558594 L 65.746094 173.566406 L 68.109375 173.566406 L 68.109375 177.558594 " fill-opacity="1" fill-rule="nonzero"/><path fill="#232323" d="M 61.390625 178.742188 L 58.144531 178.742188 C 57.492188 178.742188 56.964844 178.210938 56.964844 177.558594 C 56.964844 176.90625 57.492188 176.375 58.144531 176.375 L 61.390625 176.375 C 62.042969 176.375 62.574219 176.90625 62.574219 177.558594 C 62.574219 178.210938 62.042969 178.742188 61.390625 178.742188 " fill-opacity="1" fill-rule="nonzero"/><path fill="#232323" d="M 61.390625 198.8125 L 58.144531 198.8125 C 57.492188 198.8125 56.964844 198.285156 56.964844 197.632812 C 56.964844 196.980469 57.492188 196.449219 58.144531 196.449219 L 61.390625 196.449219 C 62.042969 196.449219 62.574219 196.980469 62.574219 197.632812 C 62.574219 198.285156 62.042969 198.8125 61.390625 198.8125 " fill-opacity="1" fill-rule="nonzero"/><path fill="#232323" d="M 64.304688 177.558594 L 61.941406 177.558594 L 61.941406 173.566406 L 64.304688 173.566406 L 64.304688 177.558594 " fill-opacity="1" fill-rule="nonzero"/><g clip-path="url(#6874808c18)"><path fill="#5ce1e6" d="M 87.730469 186.277344 C 87.730469 187.25 87.632812 188.21875 87.445312 189.175781 C 87.253906 190.132812 86.972656 191.0625 86.597656 191.964844 C 86.222656 192.867188 85.765625 193.722656 85.222656 194.535156 C 84.679688 195.347656 84.066406 196.097656 83.375 196.789062 C 82.683594 197.480469 81.933594 198.097656 81.121094 198.640625 C 80.308594 199.179688 79.453125 199.640625 78.550781 200.011719 C 77.648438 200.386719 76.71875 200.667969 75.761719 200.859375 C 74.804688 201.050781 73.835938 201.144531 72.859375 201.144531 C 71.882812 201.144531 70.917969 201.050781 69.960938 200.859375 C 69.003906 200.667969 68.074219 200.386719 67.171875 200.011719 C 66.269531 199.640625 65.410156 199.179688 64.597656 198.640625 C 63.789062 198.097656 63.035156 197.480469 62.347656 196.789062 C 61.65625 196.097656 61.039062 195.347656 60.496094 194.535156 C 59.953125 193.722656 59.496094 192.867188 59.121094 191.964844 C 58.75 191.0625 58.46875 190.132812 58.277344 189.175781 C 58.085938 188.21875 57.992188 187.25 57.992188 186.277344 C 57.992188 185.300781 58.085938 184.332031 58.277344 183.375 C 58.46875 182.417969 58.75 181.488281 59.121094 180.585938 C 59.496094 179.683594 59.953125 178.828125 60.496094 178.015625 C 61.039062 177.203125 61.65625 176.453125 62.347656 175.761719 C 63.035156 175.070312 63.789062 174.453125 64.597656 173.910156 C 65.410156 173.371094 66.269531 172.910156 67.171875 172.539062 C 68.074219 172.164062 69.003906 171.882812 69.960938 171.691406 C 70.917969 171.5 71.882812 171.40625 72.859375 171.40625 C 73.835938 171.40625 74.804688 171.5 75.761719 171.691406 C 76.71875 171.882812 77.648438 172.164062 78.550781 172.539062 C 79.453125 172.910156 80.308594 173.371094 81.121094 173.910156 C 81.933594 174.453125 82.683594 175.070312 83.375 175.761719 C 84.066406 176.453125 84.679688 177.203125 85.222656 178.015625 C 85.765625 178.828125 86.222656 179.683594 86.597656 180.585938 C 86.972656 181.488281 87.253906 182.417969 87.445312 183.375 C 87.632812 184.332031 87.730469 185.300781 87.730469 186.277344 Z M 87.730469 186.277344 " fill-opacity="1" fill-rule="nonzero"/></g><g clip-path="url(#80aca0ab9b)"><path fill="#232323" d="M 72.859375 202.207031 C 64.074219 202.207031 56.929688 195.0625 56.929688 186.277344 C 56.929688 177.488281 64.074219 170.34375 72.859375 170.34375 C 81.644531 170.34375 88.792969 177.488281 88.792969 186.277344 C 88.792969 195.0625 81.644531 202.207031 72.859375 202.207031 Z M 72.859375 172.46875 C 65.246094 172.46875 59.054688 178.660156 59.054688 186.277344 C 59.054688 193.890625 65.246094 200.082031 72.859375 200.082031 C 80.472656 200.082031 86.667969 193.890625 86.667969 186.277344 C 86.667969 178.660156 80.472656 172.46875 72.859375 172.46875 Z M 72.859375 172.46875 " fill-opacity="1" fill-rule="nonzero"/></g><path fill="#232323" d="M 75.285156 183.695312 C 74.992188 183.695312 74.742188 183.59375 74.535156 183.382812 L 72.109375 180.957031 C 72.007812 180.859375 71.933594 180.742188 71.878906 180.613281 C 71.824219 180.484375 71.796875 180.347656 71.796875 180.207031 C 71.796875 180.066406 71.824219 179.929688 71.878906 179.800781 C 71.933594 179.671875 72.007812 179.554688 72.109375 179.457031 L 74.535156 177.027344 C 74.636719 176.929688 74.75 176.851562 74.878906 176.796875 C 75.011719 176.742188 75.144531 176.714844 75.285156 176.714844 C 75.425781 176.714844 75.5625 176.742188 75.691406 176.796875 C 75.824219 176.851562 75.9375 176.929688 76.039062 177.027344 C 76.136719 177.128906 76.214844 177.242188 76.269531 177.371094 C 76.320312 177.503906 76.347656 177.636719 76.347656 177.777344 C 76.347656 177.917969 76.320312 178.054688 76.265625 178.183594 C 76.214844 178.316406 76.136719 178.429688 76.039062 178.53125 L 74.359375 180.207031 L 76.039062 181.882812 C 76.1875 182.035156 76.285156 182.214844 76.328125 182.425781 C 76.371094 182.636719 76.347656 182.839844 76.265625 183.039062 C 76.183594 183.238281 76.054688 183.398438 75.875 183.515625 C 75.699219 183.636719 75.5 183.695312 75.285156 183.695312 Z M 75.285156 183.695312 " fill-opacity="1" fill-rule="nonzero"/><path fill="#232323" d="M 75.894531 193.40625 C 75.753906 193.40625 75.617188 193.378906 75.488281 193.324219 C 75.359375 193.273438 75.242188 193.195312 75.144531 193.09375 C 75.042969 192.996094 74.96875 192.878906 74.914062 192.75 C 74.859375 192.621094 74.832031 192.484375 74.832031 192.34375 C 74.832031 192.203125 74.859375 192.066406 74.914062 191.9375 C 74.96875 191.808594 75.042969 191.691406 75.144531 191.59375 C 75.242188 191.492188 75.359375 191.417969 75.488281 191.363281 C 75.617188 191.308594 75.753906 191.28125 75.894531 191.28125 C 76.183594 191.28125 76.46875 191.253906 76.753906 191.195312 C 77.035156 191.140625 77.3125 191.054688 77.578125 190.945312 C 77.84375 190.835938 78.097656 190.699219 78.335938 190.539062 C 78.578125 190.378906 78.800781 190.195312 79.003906 189.992188 C 79.207031 189.789062 79.390625 189.566406 79.550781 189.328125 C 79.710938 189.085938 79.847656 188.832031 79.957031 188.566406 C 80.070312 188.300781 80.152344 188.023438 80.210938 187.742188 C 80.265625 187.460938 80.296875 187.171875 80.296875 186.882812 L 80.296875 185.671875 C 80.296875 185.386719 80.265625 185.097656 80.210938 184.816406 C 80.152344 184.53125 80.070312 184.257812 79.957031 183.992188 C 79.847656 183.726562 79.710938 183.472656 79.550781 183.230469 C 79.390625 182.992188 79.207031 182.769531 79.003906 182.566406 C 78.800781 182.363281 78.578125 182.179688 78.335938 182.019531 C 78.097656 181.859375 77.84375 181.722656 77.578125 181.613281 C 77.3125 181.503906 77.035156 181.417969 76.753906 181.363281 C 76.46875 181.304688 76.183594 181.277344 75.894531 181.277344 L 72.859375 181.277344 C 72.71875 181.277344 72.585938 181.25 72.453125 181.195312 C 72.324219 181.140625 72.207031 181.066406 72.109375 180.964844 C 72.007812 180.867188 71.933594 180.75 71.878906 180.621094 C 71.824219 180.492188 71.796875 180.355469 71.796875 180.214844 C 71.796875 180.074219 71.824219 179.9375 71.878906 179.808594 C 71.933594 179.675781 72.007812 179.5625 72.109375 179.464844 C 72.207031 179.363281 72.324219 179.285156 72.453125 179.234375 C 72.585938 179.179688 72.71875 179.152344 72.859375 179.152344 L 75.894531 179.152344 C 76.324219 179.152344 76.746094 179.195312 77.167969 179.277344 C 77.585938 179.363281 77.992188 179.484375 78.390625 179.648438 C 78.785156 179.8125 79.160156 180.015625 79.515625 180.253906 C 79.871094 180.488281 80.199219 180.761719 80.503906 181.0625 C 80.804688 181.363281 81.078125 181.695312 81.316406 182.050781 C 81.554688 182.40625 81.753906 182.78125 81.917969 183.175781 C 82.082031 183.570312 82.207031 183.976562 82.292969 184.398438 C 82.375 184.816406 82.417969 185.242188 82.417969 185.667969 L 82.417969 186.878906 C 82.417969 187.308594 82.378906 187.730469 82.292969 188.152344 C 82.210938 188.574219 82.085938 188.980469 81.921875 189.375 C 81.757812 189.773438 81.554688 190.148438 81.320312 190.503906 C 81.082031 190.859375 80.808594 191.1875 80.507812 191.492188 C 80.203125 191.796875 79.875 192.066406 79.519531 192.304688 C 79.164062 192.542969 78.785156 192.742188 78.390625 192.90625 C 77.996094 193.070312 77.585938 193.195312 77.167969 193.28125 C 76.746094 193.363281 76.324219 193.40625 75.894531 193.40625 Z M 75.894531 193.40625 " fill-opacity="1" fill-rule="nonzero"/><path fill="#232323" d="M 70.433594 195.835938 C 70.21875 195.835938 70.023438 195.773438 69.84375 195.65625 C 69.667969 195.535156 69.535156 195.375 69.453125 195.179688 C 69.371094 194.980469 69.351562 194.777344 69.394531 194.566406 C 69.433594 194.355469 69.53125 194.171875 69.683594 194.019531 L 71.359375 192.34375 L 69.683594 190.667969 C 69.585938 190.570312 69.507812 190.453125 69.453125 190.324219 C 69.398438 190.195312 69.371094 190.058594 69.371094 189.917969 C 69.371094 189.777344 69.398438 189.640625 69.453125 189.511719 C 69.507812 189.378906 69.582031 189.265625 69.683594 189.167969 C 69.78125 189.066406 69.898438 188.988281 70.027344 188.9375 C 70.15625 188.882812 70.292969 188.855469 70.433594 188.855469 C 70.574219 188.855469 70.710938 188.882812 70.839844 188.9375 C 70.96875 188.988281 71.085938 189.066406 71.183594 189.167969 L 73.613281 191.59375 C 73.710938 191.691406 73.789062 191.808594 73.84375 191.9375 C 73.898438 192.066406 73.921875 192.203125 73.921875 192.34375 C 73.921875 192.484375 73.898438 192.621094 73.84375 192.75 C 73.789062 192.878906 73.710938 192.996094 73.613281 193.09375 L 71.183594 195.523438 C 70.976562 195.730469 70.726562 195.835938 70.433594 195.835938 Z M 70.433594 195.835938 " fill-opacity="1" fill-rule="nonzero"/><path fill="#232323" d="M 72.859375 193.40625 L 69.824219 193.40625 C 69.398438 193.40625 68.972656 193.363281 68.554688 193.28125 C 68.132812 193.195312 67.726562 193.070312 67.332031 192.90625 C 66.933594 192.742188 66.558594 192.542969 66.203125 192.304688 C 65.847656 192.066406 65.515625 191.796875 65.214844 191.492188 C 64.910156 191.191406 64.640625 190.859375 64.402344 190.503906 C 64.164062 190.148438 63.964844 189.773438 63.800781 189.378906 C 63.636719 188.980469 63.511719 188.574219 63.429688 188.15625 C 63.34375 187.734375 63.300781 187.308594 63.300781 186.882812 L 63.300781 185.671875 C 63.300781 185.242188 63.34375 184.820312 63.425781 184.398438 C 63.511719 183.980469 63.636719 183.570312 63.800781 183.175781 C 63.964844 182.777344 64.164062 182.402344 64.402344 182.046875 C 64.640625 181.691406 64.910156 181.363281 65.214844 181.058594 C 65.515625 180.753906 65.847656 180.484375 66.203125 180.246094 C 66.558594 180.007812 66.933594 179.808594 67.328125 179.644531 C 67.726562 179.480469 68.132812 179.355469 68.554688 179.269531 C 68.972656 179.1875 69.398438 179.144531 69.824219 179.144531 C 69.964844 179.144531 70.101562 179.171875 70.230469 179.226562 C 70.363281 179.277344 70.476562 179.355469 70.578125 179.457031 C 70.675781 179.554688 70.753906 179.671875 70.808594 179.800781 C 70.859375 179.929688 70.886719 180.066406 70.886719 180.207031 C 70.886719 180.347656 70.859375 180.484375 70.808594 180.613281 C 70.753906 180.742188 70.675781 180.859375 70.578125 180.957031 C 70.476562 181.058594 70.363281 181.132812 70.230469 181.1875 C 70.101562 181.242188 69.964844 181.269531 69.824219 181.269531 C 69.539062 181.269531 69.25 181.296875 68.96875 181.355469 C 68.6875 181.410156 68.410156 181.496094 68.144531 181.605469 C 67.878906 181.714844 67.625 181.851562 67.386719 182.011719 C 67.144531 182.171875 66.921875 182.355469 66.71875 182.558594 C 66.515625 182.761719 66.332031 182.984375 66.171875 183.226562 C 66.011719 183.464844 65.875 183.71875 65.765625 183.984375 C 65.65625 184.25 65.570312 184.527344 65.515625 184.808594 C 65.457031 185.09375 65.429688 185.378906 65.429688 185.667969 L 65.429688 186.878906 C 65.429688 187.164062 65.457031 187.453125 65.515625 187.734375 C 65.570312 188.015625 65.65625 188.292969 65.765625 188.558594 C 65.875 188.824219 66.011719 189.078125 66.171875 189.316406 C 66.332031 189.558594 66.515625 189.78125 66.71875 189.984375 C 66.921875 190.1875 67.144531 190.371094 67.386719 190.53125 C 67.625 190.691406 67.878906 190.828125 68.144531 190.9375 C 68.410156 191.046875 68.6875 191.132812 68.96875 191.1875 C 69.25 191.246094 69.539062 191.273438 69.824219 191.273438 L 72.859375 191.273438 C 73 191.273438 73.136719 191.300781 73.265625 191.355469 C 73.398438 191.410156 73.511719 191.484375 73.613281 191.585938 C 73.710938 191.683594 73.789062 191.800781 73.84375 191.929688 C 73.894531 192.058594 73.921875 192.195312 73.921875 192.335938 C 73.921875 192.476562 73.894531 192.613281 73.84375 192.742188 C 73.789062 192.875 73.710938 192.988281 73.613281 193.085938 C 73.511719 193.1875 73.398438 193.265625 73.265625 193.316406 C 73.136719 193.371094 73 193.398438 72.859375 193.398438 Z M 72.859375 193.40625 " fill-opacity="1" fill-rule="nonzero"/><g fill="#232323" fill-opacity="1"><g transform="translate(121.741835, 198.075369)"><g><path d="M 15.28125 -21.046875 L 15.28125 -18.8125 L 9.546875 -18.8125 L 9.546875 0 L 6.796875 0 L 6.796875 -18.8125 L 1.03125 -18.8125 L 1.03125 -21.046875 Z M 15.28125 -21.046875 "/></g></g></g><g fill="#232323" fill-opacity="1"><g transform="translate(138.06691, 198.075369)"><g><path d="M 18.53125 -21.046875 L 18.53125 0 L 15.78125 0 L 15.78125 -9.546875 L 5.078125 -9.546875 L 5.078125 0 L 2.328125 0 L 2.328125 -21.046875 L 5.078125 -21.046875 L 5.078125 -11.796875 L 15.78125 -11.796875 L 15.78125 -21.046875 Z M 18.53125 -21.046875 "/></g></g></g><g fill="#232323" fill-opacity="1"><g transform="translate(158.94852, 198.075369)"><g><path d="M 5.078125 -18.8125 L 5.078125 -11.765625 L 12.734375 -11.765625 L 12.734375 -9.515625 L 5.078125 -9.515625 L 5.078125 -2.265625 L 13.640625 -2.265625 L 13.640625 0 L 2.328125 0 L 2.328125 -21.078125 L 13.640625 -21.078125 L 13.640625 -18.8125 Z M 5.078125 -18.8125 "/></g></g></g><g fill="#232323" fill-opacity="1"><g transform="translate(174.428679, 198.075369)"><g><path d="M 9 0.21875 C 7.601562 0.21875 6.359375 -0.0234375 5.265625 -0.515625 C 4.171875 -1.015625 3.3125 -1.703125 2.6875 -2.578125 C 2.0625 -3.453125 1.738281 -4.460938 1.71875 -5.609375 L 4.65625 -5.609375 C 4.75 -4.628906 5.148438 -3.800781 5.859375 -3.125 C 6.578125 -2.445312 7.625 -2.109375 9 -2.109375 C 10.300781 -2.109375 11.328125 -2.4375 12.078125 -3.09375 C 12.835938 -3.75 13.21875 -4.585938 13.21875 -5.609375 C 13.21875 -6.421875 12.992188 -7.078125 12.546875 -7.578125 C 12.109375 -8.078125 11.554688 -8.457031 10.890625 -8.71875 C 10.234375 -8.976562 9.34375 -9.257812 8.21875 -9.5625 C 6.820312 -9.925781 5.707031 -10.289062 4.875 -10.65625 C 4.039062 -11.019531 3.328125 -11.585938 2.734375 -12.359375 C 2.140625 -13.140625 1.84375 -14.179688 1.84375 -15.484375 C 1.84375 -16.628906 2.132812 -17.644531 2.71875 -18.53125 C 3.300781 -19.414062 4.117188 -20.097656 5.171875 -20.578125 C 6.234375 -21.066406 7.445312 -21.3125 8.8125 -21.3125 C 10.78125 -21.3125 12.394531 -20.816406 13.65625 -19.828125 C 14.914062 -18.847656 15.625 -17.539062 15.78125 -15.90625 L 12.765625 -15.90625 C 12.671875 -16.707031 12.25 -17.414062 11.5 -18.03125 C 10.757812 -18.644531 9.773438 -18.953125 8.546875 -18.953125 C 7.398438 -18.953125 6.460938 -18.65625 5.734375 -18.0625 C 5.015625 -17.46875 4.65625 -16.640625 4.65625 -15.578125 C 4.65625 -14.804688 4.867188 -14.179688 5.296875 -13.703125 C 5.734375 -13.222656 6.265625 -12.851562 6.890625 -12.59375 C 7.523438 -12.34375 8.414062 -12.0625 9.5625 -11.75 C 10.957031 -11.363281 12.078125 -10.984375 12.921875 -10.609375 C 13.765625 -10.234375 14.488281 -9.660156 15.09375 -8.890625 C 15.695312 -8.117188 16 -7.066406 16 -5.734375 C 16 -4.710938 15.726562 -3.75 15.1875 -2.84375 C 14.644531 -1.9375 13.835938 -1.195312 12.765625 -0.625 C 11.703125 -0.0625 10.445312 0.21875 9 0.21875 Z M 9 0.21875 "/></g></g></g><g fill="#232323" fill-opacity="1"><g transform="translate(192.141843, 198.075369)"><g><path d="M 5.078125 -21.046875 L 5.078125 0 L 2.328125 0 L 2.328125 -21.046875 Z M 5.078125 -21.046875 "/></g></g></g><g fill="#232323" fill-opacity="1"><g transform="translate(199.565076, 198.075369)"><g><path d="M 15.28125 -21.046875 L 15.28125 -18.8125 L 9.546875 -18.8125 L 9.546875 0 L 6.796875 0 L 6.796875 -18.8125 L 1.03125 -18.8125 L 1.03125 -21.046875 Z M 15.28125 -21.046875 "/></g></g></g><g fill="#232323" fill-opacity="1"><g transform="translate(215.890151, 198.075369)"><g><path d="M 5.078125 -18.8125 L 5.078125 -11.765625 L 12.734375 -11.765625 L 12.734375 -9.515625 L 5.078125 -9.515625 L 5.078125 -2.265625 L 13.640625 -2.265625 L 13.640625 0 L 2.328125 0 L 2.328125 -21.078125 L 13.640625 -21.078125 L 13.640625 -18.8125 Z M 5.078125 -18.8125 "/></g></g></g><g fill="#232323" fill-opacity="1"><g transform="translate(231.37031, 198.075369)"><g><path d="M 28.765625 -21.046875 L 22.671875 0 L 19.59375 0 L 14.703125 -16.9375 L 9.625 0 L 6.578125 0.03125 L 0.6875 -21.046875 L 3.625 -21.046875 L 8.21875 -3.203125 L 13.28125 -21.046875 L 16.359375 -21.046875 L 21.1875 -3.265625 L 25.8125 -21.046875 Z M 28.765625 -21.046875 "/></g></g></g><g fill="#232323" fill-opacity="1"><g transform="translate(260.821838, 198.075369)"><g><path d="M 5.078125 -18.8125 L 5.078125 -11.765625 L 12.734375 -11.765625 L 12.734375 -9.515625 L 5.078125 -9.515625 L 5.078125 -2.265625 L 13.640625 -2.265625 L 13.640625 0 L 2.328125 0 L 2.328125 -21.078125 L 13.640625 -21.078125 L 13.640625 -18.8125 Z M 5.078125 -18.8125 "/></g></g></g><g fill="#232323" fill-opacity="1"><g transform="translate(276.301997, 198.075369)"><g><path d="M 14.765625 -4.671875 L 5.578125 -4.671875 L 3.890625 0 L 1 0 L 8.609375 -20.921875 L 11.765625 -20.921875 L 19.34375 0 L 16.453125 0 Z M 13.984375 -6.90625 L 10.171875 -17.53125 L 6.375 -6.90625 Z M 13.984375 -6.90625 "/></g></g></g><g fill="#232323" fill-opacity="1"><g transform="translate(296.640447, 198.075369)"><g><path d="M 19.71875 -21.046875 L 11.765625 0 L 8.609375 0 L 0.671875 -21.046875 L 3.59375 -21.046875 L 10.203125 -2.890625 L 16.8125 -21.046875 Z M 19.71875 -21.046875 "/></g></g></g><g fill="#232323" fill-opacity="1"><g transform="translate(317.039253, 198.075369)"><g><path d="M 5.078125 -18.8125 L 5.078125 -11.765625 L 12.734375 -11.765625 L 12.734375 -9.515625 L 5.078125 -9.515625 L 5.078125 -2.265625 L 13.640625 -2.265625 L 13.640625 0 L 2.328125 0 L 2.328125 -21.078125 L 13.640625 -21.078125 L 13.640625 -18.8125 Z M 5.078125 -18.8125 "/></g></g></g><g fill="#232323" fill-opacity="1"><g transform="translate(332.519423, 198.075369)"><g><path d="M 13.40625 0 L 8.390625 -8.609375 L 5.078125 -8.609375 L 5.078125 0 L 2.328125 0 L 2.328125 -21.046875 L 9.109375 -21.046875 C 10.703125 -21.046875 12.046875 -20.769531 13.140625 -20.21875 C 14.242188 -19.675781 15.066406 -18.941406 15.609375 -18.015625 C 16.148438 -17.097656 16.421875 -16.046875 16.421875 -14.859375 C 16.421875 -13.398438 16.003906 -12.117188 15.171875 -11.015625 C 14.335938 -9.910156 13.082031 -9.175781 11.40625 -8.8125 L 16.6875 0 Z M 5.078125 -10.8125 L 9.109375 -10.8125 C 10.597656 -10.8125 11.710938 -11.175781 12.453125 -11.90625 C 13.203125 -12.644531 13.578125 -13.628906 13.578125 -14.859375 C 13.578125 -16.097656 13.207031 -17.0625 12.46875 -17.75 C 11.738281 -18.4375 10.617188 -18.78125 9.109375 -18.78125 L 5.078125 -18.78125 Z M 5.078125 -10.8125 "/></g></g></g><g fill="#232323" fill-opacity="1"><g transform="translate(152.041402, 218.24357)"><g><path d="M 6.953125 -2.0625 C 6.703125 -1.414062 6.289062 -0.894531 5.71875 -0.5 C 5.144531 -0.101562 4.515625 0.09375 3.828125 0.09375 C 2.890625 0.09375 2.085938 -0.25 1.421875 -0.9375 C 0.773438 -1.613281 0.453125 -2.425781 0.453125 -3.375 C 0.453125 -3.84375 0.535156 -4.289062 0.703125 -4.71875 C 0.878906 -5.132812 1.117188 -5.503906 1.421875 -5.828125 C 2.085938 -6.515625 2.890625 -6.859375 3.828125 -6.859375 C 4.515625 -6.859375 5.144531 -6.660156 5.71875 -6.265625 C 6.28125 -5.867188 6.691406 -5.347656 6.953125 -4.703125 L 6.1875 -4.703125 C 5.820312 -5.378906 5.273438 -5.828125 4.546875 -6.046875 C 4.304688 -6.109375 4.03125 -6.140625 3.71875 -6.140625 C 3.40625 -6.140625 3.085938 -6.066406 2.765625 -5.921875 C 2.441406 -5.765625 2.160156 -5.5625 1.921875 -5.3125 C 1.398438 -4.78125 1.140625 -4.132812 1.140625 -3.375 C 1.140625 -2.625 1.398438 -1.976562 1.921875 -1.4375 C 2.441406 -0.882812 3.078125 -0.609375 3.828125 -0.609375 C 4.328125 -0.609375 4.789062 -0.742188 5.21875 -1.015625 C 5.632812 -1.273438 5.957031 -1.625 6.1875 -2.0625 Z M 6.953125 -2.0625 "/></g></g></g><g fill="#232323" fill-opacity="1"><g transform="translate(159.294369, 218.24357)"><g><path d="M 1.4375 -3.34375 L 3.015625 -3.34375 C 3.410156 -3.34375 3.734375 -3.476562 3.984375 -3.75 C 4.242188 -4.019531 4.375 -4.351562 4.375 -4.75 C 4.375 -5.132812 4.25 -5.457031 4 -5.71875 C 3.757812 -5.96875 3.429688 -6.09375 3.015625 -6.09375 L 1.4375 -6.09375 Z M 5.0625 -4.734375 C 5.0625 -4.140625 4.851562 -3.644531 4.4375 -3.25 C 4.0625 -2.90625 3.613281 -2.71875 3.09375 -2.6875 L 5.171875 0 L 4.234375 0 L 2.265625 -2.671875 L 1.4375 -2.671875 L 1.4375 0 L 0.75 0 L 0.75 -6.765625 L 2.921875 -6.765625 C 3.523438 -6.765625 4.03125 -6.578125 4.4375 -6.203125 C 4.851562 -5.804688 5.0625 -5.316406 5.0625 -4.734375 Z M 5.0625 -4.734375 "/></g></g></g><g fill="#232323" fill-opacity="1"><g transform="translate(164.706737, 218.24357)"><g><path d="M 1.84375 -2.484375 L 4.296875 -2.484375 L 3.078125 -5.609375 Z M 6.046875 0 L 5.28125 0 L 4.5625 -1.84375 L 1.578125 -1.84375 L 0.859375 0 L 0.09375 0 L 3.078125 -7.234375 Z M 6.046875 0 "/></g></g></g><g fill="#232323" fill-opacity="1"><g transform="translate(170.845394, 218.24357)"><g><path d="M 4.765625 -6.125 L 1.4375 -6.125 L 1.4375 -3.71875 L 4.671875 -3.71875 L 4.671875 -3.0625 L 1.4375 -3.0625 L 1.4375 0 L 0.75 0 L 0.75 -6.765625 L 4.765625 -6.765625 Z M 4.765625 -6.125 "/></g></g></g><g fill="#232323" fill-opacity="1"><g transform="translate(175.810046, 218.24357)"><g><path d="M 0.203125 -6.140625 L 0.203125 -6.78125 L 4.1875 -6.78125 L 4.1875 -6.140625 L 2.53125 -6.140625 L 2.53125 -0.015625 L 1.84375 -0.015625 L 1.84375 -6.140625 Z M 0.203125 -6.140625 "/></g></g></g><g fill="#232323" fill-opacity="1"><g transform="translate(180.187697, 218.24357)"><g><path d="M 1.4375 0 L 0.75 0 L 0.75 -6.765625 L 1.4375 -6.765625 Z M 1.4375 0 "/></g></g></g><g fill="#232323" fill-opacity="1"><g transform="translate(182.376529, 218.24357)"><g><path d="M 1.4375 -4.984375 L 1.4375 0 L 0.75 0 L 0.75 -7.203125 L 4.546875 -1.796875 L 4.546875 -6.765625 L 5.25 -6.765625 L 5.25 0.421875 Z M 1.4375 -4.984375 "/></g></g></g><g fill="#232323" fill-opacity="1"><g transform="translate(188.365954, 218.24357)"><g><path d="M 7.421875 -3.171875 L 7.359375 -2.75 C 7.210938 -1.925781 6.8125 -1.25 6.15625 -0.71875 C 5.5 -0.1875 4.757812 0.078125 3.9375 0.078125 C 3.457031 0.078125 3.003906 -0.015625 2.578125 -0.203125 C 2.148438 -0.378906 1.78125 -0.628906 1.46875 -0.953125 C 1.15625 -1.253906 0.910156 -1.617188 0.734375 -2.046875 C 0.546875 -2.472656 0.453125 -2.925781 0.453125 -3.40625 C 0.453125 -3.882812 0.546875 -4.335938 0.734375 -4.765625 C 0.910156 -5.191406 1.15625 -5.5625 1.46875 -5.875 C 1.78125 -6.1875 2.148438 -6.4375 2.578125 -6.625 C 3.003906 -6.800781 3.429688 -6.890625 3.859375 -6.890625 C 4.671875 -6.890625 5.382812 -6.660156 6 -6.203125 C 6.625 -5.753906 7.050781 -5.15625 7.28125 -4.40625 L 6.546875 -4.40625 C 6.328125 -4.945312 5.984375 -5.382812 5.515625 -5.71875 C 5.035156 -6.039062 4.507812 -6.203125 3.9375 -6.203125 C 3.164062 -6.203125 2.503906 -5.929688 1.953125 -5.390625 C 1.410156 -4.835938 1.140625 -4.175781 1.140625 -3.40625 C 1.140625 -2.644531 1.410156 -1.988281 1.953125 -1.4375 C 2.492188 -0.882812 3.15625 -0.609375 3.9375 -0.609375 C 4.539062 -0.609375 5.097656 -0.785156 5.609375 -1.140625 C 6.097656 -1.503906 6.445312 -1.976562 6.65625 -2.5625 L 3.90625 -2.5625 L 3.90625 -3.171875 Z M 7.421875 -3.171875 "/></g></g></g><g fill="#232323" fill-opacity="1"><g transform="translate(196.235781, 218.24357)"><g/></g></g><g fill="#232323" fill-opacity="1"><g transform="translate(198.922063, 218.24357)"><g><path d="M 3.359375 -3.1875 L 3.359375 0 L 2.671875 0 L 2.671875 -3.1875 L 0.09375 -6.765625 L 1 -6.765625 L 3.015625 -3.875 L 5.03125 -6.765625 L 5.921875 -6.765625 Z M 3.359375 -3.1875 "/></g></g></g><g fill="#232323" fill-opacity="1"><g transform="translate(204.941335, 218.24357)"><g><path d="M 6.703125 -3.40625 C 6.703125 -4.164062 6.429688 -4.816406 5.890625 -5.359375 C 5.347656 -5.910156 4.691406 -6.1875 3.921875 -6.1875 C 3.160156 -6.1875 2.503906 -5.910156 1.953125 -5.359375 C 1.410156 -4.816406 1.140625 -4.164062 1.140625 -3.40625 C 1.140625 -2.632812 1.410156 -1.976562 1.953125 -1.4375 C 2.503906 -0.882812 3.160156 -0.609375 3.921875 -0.609375 C 4.691406 -0.609375 5.347656 -0.882812 5.890625 -1.4375 C 6.429688 -1.976562 6.703125 -2.632812 6.703125 -3.40625 Z M 7.40625 -3.40625 C 7.40625 -2.925781 7.316406 -2.472656 7.140625 -2.046875 C 6.953125 -1.617188 6.703125 -1.253906 6.390625 -0.953125 C 6.066406 -0.628906 5.695312 -0.378906 5.28125 -0.203125 C 4.851562 -0.015625 4.398438 0.078125 3.921875 0.078125 C 3.441406 0.078125 2.992188 -0.015625 2.578125 -0.203125 C 2.148438 -0.378906 1.78125 -0.628906 1.46875 -0.953125 C 1.15625 -1.253906 0.910156 -1.617188 0.734375 -2.046875 C 0.546875 -2.472656 0.453125 -2.925781 0.453125 -3.40625 C 0.453125 -3.882812 0.546875 -4.332031 0.734375 -4.75 C 0.910156 -5.175781 1.15625 -5.546875 1.46875 -5.859375 C 1.78125 -6.171875 2.148438 -6.421875 2.578125 -6.609375 C 2.992188 -6.785156 3.441406 -6.875 3.921875 -6.875 C 4.398438 -6.875 4.851562 -6.785156 5.28125 -6.609375 C 5.695312 -6.421875 6.066406 -6.171875 6.390625 -5.859375 C 6.703125 -5.546875 6.953125 -5.175781 7.140625 -4.75 C 7.316406 -4.332031 7.40625 -3.882812 7.40625 -3.40625 Z M 7.40625 -3.40625 "/></g></g></g><g fill="#232323" fill-opacity="1"><g transform="translate(212.79126, 218.24357)"><g><path d="M 5.640625 -2.234375 C 5.640625 -1.503906 5.398438 -0.925781 4.921875 -0.5 C 4.472656 -0.101562 3.875 0.09375 3.125 0.09375 C 2.363281 0.09375 1.757812 -0.101562 1.3125 -0.5 C 0.832031 -0.925781 0.59375 -1.503906 0.59375 -2.234375 L 0.59375 -6.765625 L 1.296875 -6.765625 L 1.296875 -2.140625 C 1.296875 -1.628906 1.476562 -1.238281 1.84375 -0.96875 C 2.164062 -0.726562 2.59375 -0.609375 3.125 -0.609375 C 3.957031 -0.609375 4.515625 -0.882812 4.796875 -1.4375 C 4.898438 -1.632812 4.953125 -1.867188 4.953125 -2.140625 L 4.953125 -6.765625 L 5.640625 -6.765625 Z M 5.640625 -2.234375 "/></g></g></g><g fill="#232323" fill-opacity="1"><g transform="translate(219.029412, 218.24357)"><g><path d="M 1.4375 -3.34375 L 3.015625 -3.34375 C 3.410156 -3.34375 3.734375 -3.476562 3.984375 -3.75 C 4.242188 -4.019531 4.375 -4.351562 4.375 -4.75 C 4.375 -5.132812 4.25 -5.457031 4 -5.71875 C 3.757812 -5.96875 3.429688 -6.09375 3.015625 -6.09375 L 1.4375 -6.09375 Z M 5.0625 -4.734375 C 5.0625 -4.140625 4.851562 -3.644531 4.4375 -3.25 C 4.0625 -2.90625 3.613281 -2.71875 3.09375 -2.6875 L 5.171875 0 L 4.234375 0 L 2.265625 -2.671875 L 1.4375 -2.671875 L 1.4375 0 L 0.75 0 L 0.75 -6.765625 L 2.921875 -6.765625 C 3.523438 -6.765625 4.03125 -6.578125 4.4375 -6.203125 C 4.851562 -5.804688 5.0625 -5.316406 5.0625 -4.734375 Z M 5.0625 -4.734375 "/></g></g></g><g fill="#232323" fill-opacity="1"><g transform="translate(224.44178, 218.24357)"><g/></g></g><g fill="#232323" fill-opacity="1"><g transform="translate(227.128063, 218.24357)"><g><path d="M 6.703125 -3.40625 C 6.703125 -4.164062 6.429688 -4.816406 5.890625 -5.359375 C 5.347656 -5.910156 4.691406 -6.1875 3.921875 -6.1875 C 3.160156 -6.1875 2.503906 -5.910156 1.953125 -5.359375 C 1.410156 -4.816406 1.140625 -4.164062 1.140625 -3.40625 C 1.140625 -2.632812 1.410156 -1.976562 1.953125 -1.4375 C 2.503906 -0.882812 3.160156 -0.609375 3.921875 -0.609375 C 4.691406 -0.609375 5.347656 -0.882812 5.890625 -1.4375 C 6.429688 -1.976562 6.703125 -2.632812 6.703125 -3.40625 Z M 7.40625 -3.40625 C 7.40625 -2.925781 7.316406 -2.472656 7.140625 -2.046875 C 6.953125 -1.617188 6.703125 -1.253906 6.390625 -0.953125 C 6.066406 -0.628906 5.695312 -0.378906 5.28125 -0.203125 C 4.851562 -0.015625 4.398438 0.078125 3.921875 0.078125 C 3.441406 0.078125 2.992188 -0.015625 2.578125 -0.203125 C 2.148438 -0.378906 1.78125 -0.628906 1.46875 -0.953125 C 1.15625 -1.253906 0.910156 -1.617188 0.734375 -2.046875 C 0.546875 -2.472656 0.453125 -2.925781 0.453125 -3.40625 C 0.453125 -3.882812 0.546875 -4.332031 0.734375 -4.75 C 0.910156 -5.175781 1.15625 -5.546875 1.46875 -5.859375 C 1.78125 -6.171875 2.148438 -6.421875 2.578125 -6.609375 C 2.992188 -6.785156 3.441406 -6.875 3.921875 -6.875 C 4.398438 -6.875 4.851562 -6.785156 5.28125 -6.609375 C 5.695312 -6.421875 6.066406 -6.171875 6.390625 -5.859375 C 6.703125 -5.546875 6.953125 -5.175781 7.140625 -4.75 C 7.316406 -4.332031 7.40625 -3.882812 7.40625 -3.40625 Z M 7.40625 -3.40625 "/></g></g></g><g fill="#232323" fill-opacity="1"><g transform="translate(234.977988, 218.24357)"><g><path d="M 1.4375 -4.984375 L 1.4375 0 L 0.75 0 L 0.75 -7.203125 L 4.546875 -1.796875 L 4.546875 -6.765625 L 5.25 -6.765625 L 5.25 0.421875 Z M 1.4375 -4.984375 "/></g></g></g><g fill="#232323" fill-opacity="1"><g transform="translate(240.967414, 218.24357)"><g><path d="M 1.4375 -0.703125 L 3.859375 -0.703125 L 3.859375 0 L 0.75 0 L 0.75 -6.765625 L 1.4375 -6.765625 Z M 1.4375 -0.703125 "/></g></g></g><g fill="#232323" fill-opacity="1"><g transform="translate(245.02669, 218.24357)"><g><path d="M 1.4375 0 L 0.75 0 L 0.75 -6.765625 L 1.4375 -6.765625 Z M 1.4375 0 "/></g></g></g><g fill="#232323" fill-opacity="1"><g transform="translate(247.215521, 218.24357)"><g><path d="M 1.4375 -4.984375 L 1.4375 0 L 0.75 0 L 0.75 -7.203125 L 4.546875 -1.796875 L 4.546875 -6.765625 L 5.25 -6.765625 L 5.25 0.421875 Z M 1.4375 -4.984375 "/></g></g></g><g fill="#232323" fill-opacity="1"><g transform="translate(253.204946, 218.24357)"><g><path d="M 4.765625 0 L 0.75 0 L 0.75 -6.765625 L 4.765625 -6.765625 L 4.765625 -6.125 L 1.4375 -6.125 L 1.4375 -3.71875 L 4.671875 -3.71875 L 4.671875 -3.0625 L 1.4375 -3.0625 L 1.4375 -0.640625 L 4.765625 -0.640625 Z M 4.765625 0 "/></g></g></g><g fill="#232323" fill-opacity="1"><g transform="translate(258.71681, 218.24357)"><g/></g></g><g fill="#232323" fill-opacity="1"><g transform="translate(261.403093, 218.24357)"><g><path d="M 1.4375 -3.359375 L 3.015625 -3.359375 C 3.410156 -3.359375 3.734375 -3.488281 3.984375 -3.75 C 4.242188 -4.019531 4.375 -4.351562 4.375 -4.75 C 4.375 -5.144531 4.25 -5.46875 4 -5.71875 C 3.757812 -5.96875 3.429688 -6.09375 3.015625 -6.09375 L 1.4375 -6.09375 Z M 5.0625 -4.734375 C 5.0625 -4.140625 4.851562 -3.644531 4.4375 -3.25 C 4.03125 -2.863281 3.523438 -2.671875 2.921875 -2.671875 L 1.4375 -2.671875 L 1.4375 0 L 0.75 0 L 0.75 -6.765625 L 2.921875 -6.765625 C 3.515625 -6.765625 4.019531 -6.578125 4.4375 -6.203125 C 4.851562 -5.816406 5.0625 -5.328125 5.0625 -4.734375 Z M 5.0625 -4.734375 "/></g></g></g><g fill="#232323" fill-opacity="1"><g transform="translate(266.666219, 218.24357)"><g><path d="M 1.4375 -3.34375 L 3.015625 -3.34375 C 3.410156 -3.34375 3.734375 -3.476562 3.984375 -3.75 C 4.242188 -4.019531 4.375 -4.351562 4.375 -4.75 C 4.375 -5.132812 4.25 -5.457031 4 -5.71875 C 3.757812 -5.96875 3.429688 -6.09375 3.015625 -6.09375 L 1.4375 -6.09375 Z M 5.0625 -4.734375 C 5.0625 -4.140625 4.851562 -3.644531 4.4375 -3.25 C 4.0625 -2.90625 3.613281 -2.71875 3.09375 -2.6875 L 5.171875 0 L 4.234375 0 L 2.265625 -2.671875 L 1.4375 -2.671875 L 1.4375 0 L 0.75 0 L 0.75 -6.765625 L 2.921875 -6.765625 C 3.523438 -6.765625 4.03125 -6.578125 4.4375 -6.203125 C 4.851562 -5.804688 5.0625 -5.316406 5.0625 -4.734375 Z M 5.0625 -4.734375 "/></g></g></g><g fill="#232323" fill-opacity="1"><g transform="translate(272.078587, 218.24357)"><g><path d="M 4.765625 0 L 0.75 0 L 0.75 -6.765625 L 4.765625 -6.765625 L 4.765625 -6.125 L 1.4375 -6.125 L 1.4375 -3.71875 L 4.671875 -3.71875 L 4.671875 -3.0625 L 1.4375 -3.0625 L 1.4375 -0.640625 L 4.765625 -0.640625 Z M 4.765625 0 "/></g></g></g><g fill="#232323" fill-opacity="1"><g transform="translate(277.590451, 218.24357)"><g><path d="M 2.625 -3.1875 C 1.25 -3.507812 0.5625 -4.101562 0.5625 -4.96875 C 0.5625 -5.601562 0.78125 -6.082031 1.21875 -6.40625 C 1.664062 -6.71875 2.1875 -6.875 2.78125 -6.875 C 4.101562 -6.875 4.890625 -6.378906 5.140625 -5.390625 L 4.375 -5.390625 C 4.25 -5.972656 3.71875 -6.265625 2.78125 -6.265625 C 2.132812 -6.265625 1.679688 -6.070312 1.421875 -5.6875 C 1.328125 -5.539062 1.28125 -5.359375 1.28125 -5.140625 C 1.28125 -4.722656 1.503906 -4.40625 1.953125 -4.1875 C 2.160156 -4.070312 2.609375 -3.925781 3.296875 -3.75 C 3.992188 -3.5625 4.5 -3.359375 4.8125 -3.140625 C 5.238281 -2.835938 5.453125 -2.410156 5.453125 -1.859375 C 5.453125 -1.179688 5.179688 -0.664062 4.640625 -0.3125 C 4.191406 -0.0195312 3.632812 0.125 2.96875 0.125 C 1.476562 0.125 0.613281 -0.441406 0.375 -1.578125 L 1.1875 -1.578125 C 1.320312 -0.859375 1.914062 -0.5 2.96875 -0.5 C 3.726562 -0.5 4.257812 -0.710938 4.5625 -1.140625 C 4.675781 -1.304688 4.734375 -1.53125 4.734375 -1.8125 C 4.734375 -2.09375 4.625 -2.320312 4.40625 -2.5 C 4.09375 -2.75 3.5 -2.976562 2.625 -3.1875 Z M 2.625 -3.1875 "/></g></g></g><g fill="#232323" fill-opacity="1"><g transform="translate(283.301292, 218.24357)"><g><path d="M 4.765625 0 L 0.75 0 L 0.75 -6.765625 L 4.765625 -6.765625 L 4.765625 -6.125 L 1.4375 -6.125 L 1.4375 -3.71875 L 4.671875 -3.71875 L 4.671875 -3.0625 L 1.4375 -3.0625 L 1.4375 -0.640625 L 4.765625 -0.640625 Z M 4.765625 0 "/></g></g></g><g fill="#232323" fill-opacity="1"><g transform="translate(288.813156, 218.24357)"><g><path d="M 1.4375 -4.984375 L 1.4375 0 L 0.75 0 L 0.75 -7.203125 L 4.546875 -1.796875 L 4.546875 -6.765625 L 5.25 -6.765625 L 5.25 0.421875 Z M 1.4375 -4.984375 "/></g></g></g><g fill="#232323" fill-opacity="1"><g transform="translate(294.802581, 218.24357)"><g><path d="M 6.953125 -2.0625 C 6.703125 -1.414062 6.289062 -0.894531 5.71875 -0.5 C 5.144531 -0.101562 4.515625 0.09375 3.828125 0.09375 C 2.890625 0.09375 2.085938 -0.25 1.421875 -0.9375 C 0.773438 -1.613281 0.453125 -2.425781 0.453125 -3.375 C 0.453125 -3.84375 0.535156 -4.289062 0.703125 -4.71875 C 0.878906 -5.132812 1.117188 -5.503906 1.421875 -5.828125 C 2.085938 -6.515625 2.890625 -6.859375 3.828125 -6.859375 C 4.515625 -6.859375 5.144531 -6.660156 5.71875 -6.265625 C 6.28125 -5.867188 6.691406 -5.347656 6.953125 -4.703125 L 6.1875 -4.703125 C 5.820312 -5.378906 5.273438 -5.828125 4.546875 -6.046875 C 4.304688 -6.109375 4.03125 -6.140625 3.71875 -6.140625 C 3.40625 -6.140625 3.085938 -6.066406 2.765625 -5.921875 C 2.441406 -5.765625 2.160156 -5.5625 1.921875 -5.3125 C 1.398438 -4.78125 1.140625 -4.132812 1.140625 -3.375 C 1.140625 -2.625 1.398438 -1.976562 1.921875 -1.4375 C 2.441406 -0.882812 3.078125 -0.609375 3.828125 -0.609375 C 4.328125 -0.609375 4.789062 -0.742188 5.21875 -1.015625 C 5.632812 -1.273438 5.957031 -1.625 6.1875 -2.0625 Z M 6.953125 -2.0625 "/></g></g></g><g fill="#232323" fill-opacity="1"><g transform="translate(302.055548, 218.24357)"><g><path d="M 4.765625 0 L 0.75 0 L 0.75 -6.765625 L 4.765625 -6.765625 L 4.765625 -6.125 L 1.4375 -6.125 L 1.4375 -3.71875 L 4.671875 -3.71875 L 4.671875 -3.0625 L 1.4375 -3.0625 L 1.4375 -0.640625 L 4.765625 -0.640625 Z M 4.765625 0 "/></g></g></g></svg>
