<svg xmlns="http://www.w3.org/2000/svg" xmlns:xlink="http://www.w3.org/1999/xlink" width="300" zoomAndPan="magnify" viewBox="0 0 224.87999 60" height="80" preserveAspectRatio="xMidYMid meet" version="1.0"><defs><g/><clipPath id="9dff99d073"><path d="M 0 0.015625 L 224.761719 0.015625 L 224.761719 59.984375 L 0 59.984375 Z M 0 0.015625 " clip-rule="nonzero"/></clipPath><clipPath id="c3ecb919de"><path d="M 14 8.570312 L 42 8.570312 L 42 21 L 14 21 Z M 14 8.570312 " clip-rule="nonzero"/></clipPath><clipPath id="47dbf64a0e"><path d="M 14 39 L 42 39 L 42 51.296875 L 14 51.296875 Z M 14 39 " clip-rule="nonzero"/></clipPath><clipPath id="6d6af34eba"><path d="M 45 27 L 53.222656 27 L 53.222656 29 L 45 29 Z M 45 27 " clip-rule="nonzero"/></clipPath><clipPath id="5acce7c2e9"><path d="M 30.355469 23 L 45 23 L 45 37 L 30.355469 37 Z M 30.355469 23 " clip-rule="nonzero"/></clipPath><clipPath id="6df94dd2b8"><path d="M 30.355469 22.535156 L 45.347656 22.535156 L 45.347656 37.527344 L 30.355469 37.527344 Z M 30.355469 22.535156 " clip-rule="nonzero"/></clipPath></defs><g clip-path="url(#9dff99d073)"><path fill="#000000" d="M 0 0.015625 L 224.878906 0.015625 L 224.878906 59.984375 L 0 59.984375 Z M 0 0.015625 " fill-opacity="1" fill-rule="nonzero"/></g><path fill="#ffffff" d="M 9.296875 16.371094 C 8.019531 16.371094 6.984375 15.335938 6.984375 14.058594 C 6.984375 12.785156 8.019531 11.746094 9.296875 11.746094 C 10.570312 11.746094 11.605469 12.785156 11.605469 14.058594 C 11.605469 15.335938 10.570312 16.371094 9.296875 16.371094 Z M 9.296875 12.957031 C 8.6875 12.957031 8.195312 13.453125 8.195312 14.058594 C 8.195312 14.667969 8.6875 15.160156 9.296875 15.160156 C 9.902344 15.160156 10.398438 14.667969 10.398438 14.058594 C 10.398438 13.453125 9.902344 12.957031 9.296875 12.957031 " fill-opacity="1" fill-rule="nonzero"/><path fill="#ffffff" d="M 8.347656 32.1875 C 7.074219 32.1875 6.035156 31.152344 6.035156 29.875 C 6.035156 28.601562 7.074219 27.5625 8.347656 27.5625 C 9.621094 27.5625 10.660156 28.601562 10.660156 29.875 C 10.660156 31.152344 9.621094 32.1875 8.347656 32.1875 Z M 8.347656 28.773438 C 7.742188 28.773438 7.246094 29.269531 7.246094 29.875 C 7.246094 30.484375 7.742188 30.976562 8.347656 30.976562 C 8.957031 30.976562 9.449219 30.484375 9.449219 29.875 C 9.449219 29.269531 8.957031 28.773438 8.347656 28.773438 " fill-opacity="1" fill-rule="nonzero"/><path fill="#ffffff" d="M 33.980469 40.757812 C 31.558594 40.757812 29.261719 39.976562 27.347656 38.503906 L 28.085938 37.542969 C 29.789062 38.855469 31.828125 39.546875 33.980469 39.546875 C 39.3125 39.546875 43.652344 35.207031 43.652344 29.875 C 43.652344 24.542969 39.3125 20.207031 33.980469 20.207031 C 31.828125 20.207031 29.789062 20.898438 28.085938 22.207031 L 27.347656 21.25 C 29.261719 19.773438 31.558594 18.996094 33.980469 18.996094 C 39.980469 18.996094 44.863281 23.875 44.863281 29.875 C 44.863281 35.875 39.980469 40.757812 33.980469 40.757812 " fill-opacity="1" fill-rule="nonzero"/><path fill="#ffffff" d="M 41.714844 32.910156 L 40.589844 32.46875 C 40.914062 31.640625 41.078125 30.769531 41.078125 29.875 C 41.078125 28.074219 40.398438 26.355469 39.167969 25.035156 L 40.050781 24.210938 C 41.496094 25.753906 42.289062 27.765625 42.289062 29.875 C 42.289062 30.921875 42.097656 31.941406 41.714844 32.910156 " fill-opacity="1" fill-rule="nonzero"/><path fill="#ffffff" d="M 40.050781 35.542969 L 39.167969 34.71875 C 39.414062 34.449219 39.644531 34.164062 39.847656 33.863281 L 40.847656 34.546875 C 40.609375 34.898438 40.34375 35.234375 40.050781 35.542969 " fill-opacity="1" fill-rule="nonzero"/><g clip-path="url(#c3ecb919de)"><path fill="#ffffff" d="M 15.515625 20.527344 L 14.304688 20.527344 L 14.304688 10.683594 C 14.304688 9.515625 15.253906 8.570312 16.417969 8.570312 L 39.429688 8.570312 C 40.59375 8.570312 41.542969 9.515625 41.542969 10.683594 L 41.542969 19.808594 L 40.332031 19.808594 L 40.332031 10.683594 C 40.332031 10.183594 39.925781 9.78125 39.429688 9.78125 L 16.417969 9.78125 C 15.921875 9.78125 15.515625 10.183594 15.515625 10.683594 L 15.515625 20.527344 " fill-opacity="1" fill-rule="nonzero"/></g><g clip-path="url(#47dbf64a0e)"><path fill="#ffffff" d="M 39.429688 51.183594 L 16.417969 51.183594 C 15.253906 51.183594 14.304688 50.234375 14.304688 49.070312 L 14.304688 39.222656 L 15.515625 39.222656 L 15.515625 49.070312 C 15.515625 49.566406 15.921875 49.972656 16.417969 49.972656 L 39.429688 49.972656 C 39.925781 49.972656 40.332031 49.566406 40.332031 49.070312 L 40.332031 39.945312 L 41.542969 39.945312 L 41.542969 49.070312 C 41.542969 50.234375 40.59375 51.183594 39.429688 51.183594 " fill-opacity="1" fill-rule="nonzero"/></g><path fill="#ffffff" d="M 17.785156 20.527344 L 16.574219 20.527344 L 16.574219 13.664062 C 16.574219 13.328125 16.847656 13.058594 17.179688 13.058594 L 38.667969 13.058594 C 39 13.058594 39.269531 13.328125 39.269531 13.664062 L 39.269531 18.578125 L 38.0625 18.578125 L 38.0625 14.269531 L 17.785156 14.269531 L 17.785156 20.527344 " fill-opacity="1" fill-rule="nonzero"/><path fill="#ffffff" d="M 38.667969 46.691406 L 17.179688 46.691406 C 16.847656 46.691406 16.574219 46.421875 16.574219 46.089844 L 16.574219 39.222656 L 17.785156 39.222656 L 17.785156 45.484375 L 38.0625 45.484375 L 38.0625 41.1875 L 39.269531 41.1875 L 39.269531 46.089844 C 39.269531 46.421875 39 46.691406 38.667969 46.691406 " fill-opacity="1" fill-rule="nonzero"/><path fill="#ffffff" d="M 21.867188 48.9375 L 18.789062 48.9375 L 18.789062 47.726562 L 21.867188 47.726562 L 21.867188 48.9375 " fill-opacity="1" fill-rule="nonzero"/><path fill="#ffffff" d="M 37.058594 48.9375 L 33.980469 48.9375 L 33.980469 47.726562 L 37.058594 47.726562 L 37.058594 48.9375 " fill-opacity="1" fill-rule="nonzero"/><path fill="#ffffff" d="M 29.460938 48.9375 L 26.386719 48.9375 L 26.386719 47.726562 L 29.460938 47.726562 L 29.460938 48.9375 " fill-opacity="1" fill-rule="nonzero"/><path fill="#ffffff" d="M 29.890625 12.023438 L 25.957031 12.023438 L 25.957031 10.8125 L 29.890625 10.8125 L 29.890625 12.023438 " fill-opacity="1" fill-rule="nonzero"/><path fill="#ffffff" d="M 31.414062 12.023438 C 31.257812 12.023438 31.101562 11.960938 30.988281 11.847656 C 30.875 11.734375 30.808594 11.578125 30.808594 11.417969 C 30.808594 11.261719 30.875 11.105469 30.988281 10.992188 C 31.101562 10.878906 31.257812 10.8125 31.414062 10.8125 C 31.578125 10.8125 31.730469 10.878906 31.84375 10.992188 C 31.957031 11.105469 32.019531 11.261719 32.019531 11.417969 C 32.019531 11.578125 31.957031 11.734375 31.84375 11.847656 C 31.730469 11.960938 31.578125 12.023438 31.414062 12.023438 " fill-opacity="1" fill-rule="nonzero"/><path fill="#ffffff" d="M 30.582031 43.363281 L 25.261719 43.363281 C 24.929688 43.363281 24.65625 43.09375 24.65625 42.757812 L 24.65625 16.992188 C 24.65625 16.660156 24.929688 16.386719 25.261719 16.386719 L 30.582031 16.386719 C 30.917969 16.386719 31.1875 16.660156 31.1875 16.992188 L 31.1875 18.460938 L 29.980469 18.460938 L 29.980469 17.597656 L 25.867188 17.597656 L 25.867188 42.152344 L 29.980469 42.152344 L 29.980469 41.289062 L 31.1875 41.289062 L 31.1875 42.757812 C 31.1875 43.09375 30.917969 43.363281 30.582031 43.363281 " fill-opacity="1" fill-rule="nonzero"/><path fill="#ffffff" d="M 47.660156 23.707031 L 44.257812 23.707031 L 44.257812 22.496094 L 47.660156 22.496094 L 47.660156 23.707031 " fill-opacity="1" fill-rule="nonzero"/><path fill="#ffffff" d="M 51.140625 23.707031 L 49.628906 23.707031 L 49.628906 22.496094 L 51.140625 22.496094 L 51.140625 23.707031 " fill-opacity="1" fill-rule="nonzero"/><g clip-path="url(#6d6af34eba)"><path fill="#ffffff" d="M 53.171875 28.222656 L 45.957031 28.222656 L 45.957031 27.011719 L 53.171875 27.011719 L 53.171875 28.222656 " fill-opacity="1" fill-rule="nonzero"/></g><path fill="#ffffff" d="M 48.832031 32.738281 L 45.957031 32.738281 L 45.957031 31.527344 L 48.832031 31.527344 L 48.832031 32.738281 " fill-opacity="1" fill-rule="nonzero"/><path fill="#ffffff" d="M 51.785156 32.738281 L 50.269531 32.738281 L 50.269531 31.527344 L 51.785156 31.527344 L 51.785156 32.738281 " fill-opacity="1" fill-rule="nonzero"/><path fill="#ffffff" d="M 51.027344 37.253906 L 44.257812 37.253906 L 44.257812 36.046875 L 51.027344 36.046875 L 51.027344 37.253906 " fill-opacity="1" fill-rule="nonzero"/><path fill="#ffffff" d="M 22.691406 23.707031 L 12.355469 23.707031 C 12.195312 23.707031 12.042969 23.644531 11.929688 23.53125 L 8.867188 20.46875 C 8.753906 20.355469 8.691406 20.199219 8.691406 20.039062 L 8.691406 15.765625 L 9.902344 15.765625 L 9.902344 19.789062 L 12.609375 22.496094 L 22.691406 22.496094 L 22.691406 23.707031 " fill-opacity="1" fill-rule="nonzero"/><path fill="#ffffff" d="M 9.296875 48.003906 C 8.019531 48.003906 6.984375 46.96875 6.984375 45.691406 C 6.984375 44.417969 8.019531 43.378906 9.296875 43.378906 C 10.570312 43.378906 11.605469 44.417969 11.605469 45.691406 C 11.605469 46.96875 10.570312 48.003906 9.296875 48.003906 Z M 9.296875 44.589844 C 8.6875 44.589844 8.195312 45.085938 8.195312 45.691406 C 8.195312 46.300781 8.6875 46.792969 9.296875 46.792969 C 9.902344 46.792969 10.398438 46.300781 10.398438 45.691406 C 10.398438 45.085938 9.902344 44.589844 9.296875 44.589844 " fill-opacity="1" fill-rule="nonzero"/><path fill="#ffffff" d="M 9.902344 43.984375 L 8.691406 43.984375 L 8.691406 39.714844 C 8.691406 39.550781 8.753906 39.398438 8.867188 39.285156 L 11.929688 36.222656 C 12.042969 36.109375 12.195312 36.046875 12.355469 36.046875 L 22.691406 36.046875 L 22.691406 37.253906 L 12.609375 37.253906 L 9.902344 39.964844 L 9.902344 43.984375 " fill-opacity="1" fill-rule="nonzero"/><path fill="#ffffff" d="M 22.691406 30.480469 L 10.054688 30.480469 L 10.054688 29.269531 L 22.691406 29.269531 L 22.691406 30.480469 " fill-opacity="1" fill-rule="nonzero"/><path fill="#ffffff" d="M 22.691406 27.09375 L 14.039062 27.09375 L 14.039062 25.882812 L 22.691406 25.882812 L 22.691406 27.09375 " fill-opacity="1" fill-rule="nonzero"/><path fill="#ffffff" d="M 22.691406 33.867188 L 14.039062 33.867188 L 14.039062 32.65625 L 22.691406 32.65625 L 22.691406 33.867188 " fill-opacity="1" fill-rule="nonzero"/><path fill="#ffffff" d="M 35.132812 35.617188 L 31.757812 35.617188 C 31.421875 35.617188 31.152344 35.347656 31.152344 35.011719 L 31.152344 29.550781 C 31.152344 29.21875 31.421875 28.945312 31.757812 28.945312 L 35.132812 28.945312 C 36.972656 28.945312 38.46875 30.441406 38.46875 32.28125 C 38.46875 34.121094 36.972656 35.617188 35.132812 35.617188 Z M 32.363281 34.40625 L 35.132812 34.40625 C 36.304688 34.40625 37.257812 33.453125 37.257812 32.28125 C 37.257812 31.109375 36.304688 30.15625 35.132812 30.15625 L 32.363281 30.15625 L 32.363281 34.40625 " fill-opacity="1" fill-rule="nonzero"/><path fill="#ffffff" d="M 34.671875 30.15625 L 31.757812 30.15625 C 31.421875 30.15625 31.152344 29.886719 31.152344 29.550781 L 31.152344 24.738281 C 31.152344 24.40625 31.421875 24.132812 31.757812 24.132812 L 34.671875 24.132812 C 36.332031 24.132812 37.683594 25.484375 37.683594 27.144531 C 37.683594 28.804688 36.332031 30.15625 34.671875 30.15625 Z M 32.363281 28.945312 L 34.671875 28.945312 C 35.664062 28.945312 36.472656 28.140625 36.472656 27.144531 C 36.472656 26.152344 35.664062 25.34375 34.671875 25.34375 L 32.363281 25.34375 L 32.363281 28.945312 " fill-opacity="1" fill-rule="nonzero"/><path fill="#ffffff" d="M 33.25 37.054688 L 32.039062 37.054688 L 32.039062 35.011719 L 33.25 35.011719 L 33.25 37.054688 " fill-opacity="1" fill-rule="nonzero"/><path fill="#ffffff" d="M 35.195312 37.054688 L 33.988281 37.054688 L 33.988281 35.011719 L 35.195312 35.011719 L 35.195312 37.054688 " fill-opacity="1" fill-rule="nonzero"/><path fill="#ffffff" d="M 35.195312 24.738281 L 33.988281 24.738281 L 33.988281 22.695312 L 35.195312 22.695312 L 35.195312 24.738281 " fill-opacity="1" fill-rule="nonzero"/><path fill="#ffffff" d="M 31.757812 25.34375 L 30.097656 25.34375 C 29.761719 25.34375 29.492188 25.074219 29.492188 24.738281 C 29.492188 24.40625 29.761719 24.132812 30.097656 24.132812 L 31.757812 24.132812 C 32.09375 24.132812 32.363281 24.40625 32.363281 24.738281 C 32.363281 25.074219 32.09375 25.34375 31.757812 25.34375 " fill-opacity="1" fill-rule="nonzero"/><path fill="#ffffff" d="M 31.757812 35.617188 L 30.097656 35.617188 C 29.761719 35.617188 29.492188 35.347656 29.492188 35.011719 C 29.492188 34.679688 29.761719 34.40625 30.097656 34.40625 L 31.757812 34.40625 C 32.09375 34.40625 32.363281 34.679688 32.363281 35.011719 C 32.363281 35.347656 32.09375 35.617188 31.757812 35.617188 " fill-opacity="1" fill-rule="nonzero"/><path fill="#ffffff" d="M 33.25 24.738281 L 32.039062 24.738281 L 32.039062 22.695312 L 33.25 22.695312 L 33.25 24.738281 " fill-opacity="1" fill-rule="nonzero"/><g clip-path="url(#5acce7c2e9)"><path fill="#000000" d="M 44.78125 29.996094 C 44.78125 30.453125 44.738281 30.90625 44.648438 31.355469 C 44.558594 31.800781 44.425781 32.238281 44.25 32.660156 C 44.078125 33.082031 43.863281 33.484375 43.609375 33.863281 C 43.355469 34.242188 43.066406 34.59375 42.742188 34.917969 C 42.417969 35.242188 42.066406 35.53125 41.6875 35.785156 C 41.308594 36.039062 40.90625 36.253906 40.484375 36.429688 C 40.0625 36.601562 39.625 36.734375 39.175781 36.824219 C 38.726562 36.914062 38.277344 36.957031 37.816406 36.957031 C 37.359375 36.957031 36.90625 36.914062 36.460938 36.824219 C 36.011719 36.734375 35.574219 36.601562 35.152344 36.429688 C 34.730469 36.253906 34.328125 36.039062 33.949219 35.785156 C 33.570312 35.53125 33.21875 35.242188 32.894531 34.917969 C 32.570312 34.59375 32.28125 34.242188 32.027344 33.863281 C 31.773438 33.484375 31.558594 33.082031 31.386719 32.660156 C 31.210938 32.238281 31.078125 31.800781 30.988281 31.355469 C 30.898438 30.90625 30.855469 30.453125 30.855469 29.996094 C 30.855469 29.539062 30.898438 29.085938 30.988281 28.636719 C 31.078125 28.1875 31.210938 27.753906 31.386719 27.332031 C 31.558594 26.90625 31.773438 26.507812 32.027344 26.125 C 32.28125 25.746094 32.570312 25.394531 32.894531 25.070312 C 33.21875 24.746094 33.570312 24.460938 33.949219 24.207031 C 34.328125 23.953125 34.730469 23.738281 35.152344 23.5625 C 35.574219 23.386719 36.011719 23.253906 36.460938 23.164062 C 36.90625 23.078125 37.359375 23.03125 37.816406 23.03125 C 38.277344 23.03125 38.726562 23.078125 39.175781 23.164062 C 39.625 23.253906 40.0625 23.386719 40.484375 23.5625 C 40.90625 23.738281 41.308594 23.953125 41.6875 24.207031 C 42.066406 24.460938 42.417969 24.746094 42.742188 25.070312 C 43.066406 25.394531 43.355469 25.746094 43.609375 26.125 C 43.863281 26.507812 44.078125 26.90625 44.25 27.332031 C 44.425781 27.753906 44.558594 28.1875 44.648438 28.636719 C 44.738281 29.085938 44.78125 29.539062 44.78125 29.996094 Z M 44.78125 29.996094 " fill-opacity="1" fill-rule="nonzero"/></g><g clip-path="url(#6df94dd2b8)"><path fill="#5ce1e6" d="M 37.816406 37.457031 C 33.703125 37.457031 30.355469 34.109375 30.355469 29.996094 C 30.355469 25.878906 33.703125 22.535156 37.816406 22.535156 C 41.933594 22.535156 45.277344 25.878906 45.277344 29.996094 C 45.277344 34.109375 41.933594 37.457031 37.816406 37.457031 Z M 37.816406 23.527344 C 34.253906 23.527344 31.351562 26.429688 31.351562 29.996094 C 31.351562 33.558594 34.253906 36.460938 37.816406 36.460938 C 41.382812 36.460938 44.285156 33.558594 44.285156 29.996094 C 44.285156 26.429688 41.382812 23.527344 37.816406 23.527344 Z M 37.816406 23.527344 " fill-opacity="1" fill-rule="nonzero"/></g><path fill="#5ce1e6" d="M 38.953125 28.785156 C 38.816406 28.789062 38.699219 28.738281 38.601562 28.640625 L 37.464844 27.503906 C 37.367188 27.40625 37.320312 27.289062 37.320312 27.152344 C 37.320312 27.015625 37.367188 26.898438 37.464844 26.800781 L 38.601562 25.664062 C 38.699219 25.566406 38.816406 25.519531 38.953125 25.519531 C 39.09375 25.519531 39.210938 25.566406 39.304688 25.664062 C 39.402344 25.761719 39.453125 25.878906 39.453125 26.015625 C 39.453125 26.152344 39.402344 26.269531 39.304688 26.367188 L 38.519531 27.152344 L 39.304688 27.9375 C 39.460938 28.09375 39.5 28.273438 39.414062 28.480469 C 39.328125 28.683594 39.175781 28.785156 38.953125 28.785156 Z M 38.953125 28.785156 " fill-opacity="1" fill-rule="nonzero"/><path fill="#5ce1e6" d="M 39.238281 33.335938 C 39.101562 33.335938 38.984375 33.285156 38.886719 33.1875 C 38.789062 33.089844 38.742188 32.972656 38.742188 32.835938 C 38.742188 32.699219 38.789062 32.582031 38.886719 32.484375 C 38.984375 32.386719 39.101562 32.339844 39.238281 32.339844 C 39.511719 32.339844 39.773438 32.285156 40.027344 32.183594 C 40.28125 32.078125 40.503906 31.929688 40.695312 31.734375 C 40.886719 31.542969 41.039062 31.320312 41.140625 31.066406 C 41.246094 30.816406 41.300781 30.554688 41.300781 30.28125 L 41.300781 29.714844 C 41.300781 29.441406 41.246094 29.175781 41.140625 28.925781 C 41.039062 28.671875 40.886719 28.449219 40.695312 28.257812 C 40.503906 28.066406 40.28125 27.917969 40.027344 27.8125 C 39.773438 27.707031 39.511719 27.65625 39.238281 27.652344 L 37.816406 27.652344 C 37.679688 27.652344 37.5625 27.605469 37.464844 27.507812 C 37.371094 27.410156 37.320312 27.292969 37.320312 27.15625 C 37.320312 27.019531 37.371094 26.902344 37.464844 26.804688 C 37.5625 26.707031 37.679688 26.660156 37.816406 26.660156 L 39.238281 26.660156 C 39.644531 26.660156 40.035156 26.738281 40.40625 26.890625 C 40.78125 27.046875 41.109375 27.269531 41.398438 27.554688 C 41.683594 27.839844 41.90625 28.167969 42.058594 28.542969 C 42.214844 28.917969 42.292969 29.304688 42.292969 29.710938 L 42.292969 30.277344 C 42.292969 30.683594 42.214844 31.074219 42.0625 31.445312 C 41.90625 31.820312 41.6875 32.152344 41.398438 32.4375 C 41.113281 32.726562 40.78125 32.945312 40.410156 33.101562 C 40.035156 33.257812 39.644531 33.335938 39.238281 33.335938 Z M 39.238281 33.335938 " fill-opacity="1" fill-rule="nonzero"/><path fill="#5ce1e6" d="M 36.683594 34.472656 C 36.460938 34.472656 36.308594 34.367188 36.222656 34.164062 C 36.136719 33.960938 36.175781 33.777344 36.332031 33.621094 L 37.117188 32.835938 L 36.332031 32.050781 C 36.234375 31.953125 36.183594 31.835938 36.183594 31.699219 C 36.183594 31.5625 36.234375 31.445312 36.332031 31.347656 C 36.425781 31.25 36.542969 31.203125 36.683594 31.203125 C 36.820312 31.203125 36.9375 31.25 37.035156 31.347656 L 38.171875 32.484375 C 38.265625 32.582031 38.316406 32.699219 38.316406 32.835938 C 38.316406 32.972656 38.265625 33.089844 38.171875 33.1875 L 37.035156 34.324219 C 36.9375 34.421875 36.820312 34.472656 36.683594 34.472656 Z M 36.683594 34.472656 " fill-opacity="1" fill-rule="nonzero"/><path fill="#5ce1e6" d="M 37.816406 33.335938 L 36.398438 33.335938 C 35.992188 33.335938 35.601562 33.257812 35.226562 33.101562 C 34.855469 32.945312 34.523438 32.726562 34.238281 32.4375 C 33.953125 32.152344 33.730469 31.820312 33.574219 31.449219 C 33.421875 31.074219 33.34375 30.683594 33.339844 30.277344 L 33.339844 29.710938 C 33.34375 29.308594 33.417969 28.917969 33.574219 28.542969 C 33.730469 28.167969 33.949219 27.839844 34.238281 27.550781 C 34.523438 27.265625 34.855469 27.042969 35.226562 26.890625 C 35.601562 26.734375 35.992188 26.65625 36.398438 26.65625 C 36.535156 26.65625 36.652344 26.703125 36.75 26.800781 C 36.847656 26.898438 36.894531 27.015625 36.894531 27.152344 C 36.894531 27.289062 36.847656 27.40625 36.75 27.503906 C 36.652344 27.601562 36.535156 27.652344 36.398438 27.652344 C 36.125 27.652344 35.863281 27.703125 35.609375 27.808594 C 35.359375 27.914062 35.136719 28.0625 34.941406 28.253906 C 34.75 28.449219 34.601562 28.671875 34.496094 28.921875 C 34.390625 29.175781 34.339844 29.4375 34.339844 29.710938 L 34.339844 30.277344 C 34.339844 30.550781 34.390625 30.8125 34.496094 31.0625 C 34.601562 31.316406 34.75 31.539062 34.941406 31.730469 C 35.136719 31.925781 35.359375 32.074219 35.609375 32.179688 C 35.863281 32.28125 36.125 32.335938 36.398438 32.335938 L 37.816406 32.335938 C 37.957031 32.335938 38.074219 32.382812 38.171875 32.480469 C 38.265625 32.578125 38.316406 32.695312 38.316406 32.832031 C 38.316406 32.972656 38.265625 33.089844 38.171875 33.183594 C 38.074219 33.28125 37.957031 33.332031 37.816406 33.332031 Z M 37.816406 33.335938 " fill-opacity="1" fill-rule="nonzero"/><g fill="#ffffff" fill-opacity="1"><g transform="translate(65.251108, 33.960209)"><g><path d="M 10.078125 -13.890625 L 10.078125 -12.40625 L 6.296875 -12.40625 L 6.296875 0 L 4.484375 0 L 4.484375 -12.40625 L 0.671875 -12.40625 L 0.671875 -13.890625 Z M 10.078125 -13.890625 "/></g></g></g><g fill="#ffffff" fill-opacity="1"><g transform="translate(76.02398, 33.960209)"><g><path d="M 12.234375 -13.890625 L 12.234375 0 L 10.421875 0 L 10.421875 -6.296875 L 3.34375 -6.296875 L 3.34375 0 L 1.53125 0 L 1.53125 -13.890625 L 3.34375 -13.890625 L 3.34375 -7.796875 L 10.421875 -7.796875 L 10.421875 -13.890625 Z M 12.234375 -13.890625 "/></g></g></g><g fill="#ffffff" fill-opacity="1"><g transform="translate(89.803701, 33.960209)"><g><path d="M 3.34375 -12.40625 L 3.34375 -7.765625 L 8.40625 -7.765625 L 8.40625 -6.28125 L 3.34375 -6.28125 L 3.34375 -1.5 L 9 -1.5 L 9 0 L 1.53125 0 L 1.53125 -13.90625 L 9 -13.90625 L 9 -12.40625 Z M 3.34375 -12.40625 "/></g></g></g><g fill="#ffffff" fill-opacity="1"><g transform="translate(100.019025, 33.960209)"><g><path d="M 5.9375 0.140625 C 5.019531 0.140625 4.195312 -0.0195312 3.46875 -0.34375 C 2.75 -0.675781 2.179688 -1.128906 1.765625 -1.703125 C 1.359375 -2.273438 1.148438 -2.941406 1.140625 -3.703125 L 3.0625 -3.703125 C 3.132812 -3.054688 3.40625 -2.507812 3.875 -2.0625 C 4.34375 -1.613281 5.03125 -1.390625 5.9375 -1.390625 C 6.800781 -1.390625 7.476562 -1.601562 7.96875 -2.03125 C 8.46875 -2.46875 8.71875 -3.023438 8.71875 -3.703125 C 8.71875 -4.234375 8.570312 -4.664062 8.28125 -5 C 7.988281 -5.332031 7.625 -5.582031 7.1875 -5.75 C 6.75 -5.925781 6.160156 -6.113281 5.421875 -6.3125 C 4.503906 -6.550781 3.769531 -6.789062 3.21875 -7.03125 C 2.664062 -7.269531 2.191406 -7.644531 1.796875 -8.15625 C 1.410156 -8.664062 1.21875 -9.351562 1.21875 -10.21875 C 1.21875 -10.976562 1.410156 -11.648438 1.796875 -12.234375 C 2.179688 -12.816406 2.722656 -13.265625 3.421875 -13.578125 C 4.117188 -13.898438 4.914062 -14.0625 5.8125 -14.0625 C 7.113281 -14.0625 8.179688 -13.734375 9.015625 -13.078125 C 9.847656 -12.429688 10.316406 -11.570312 10.421875 -10.5 L 8.421875 -10.5 C 8.359375 -11.03125 8.082031 -11.5 7.59375 -11.90625 C 7.101562 -12.3125 6.453125 -12.515625 5.640625 -12.515625 C 4.878906 -12.515625 4.257812 -12.316406 3.78125 -11.921875 C 3.300781 -11.523438 3.0625 -10.976562 3.0625 -10.28125 C 3.0625 -9.769531 3.203125 -9.351562 3.484375 -9.03125 C 3.773438 -8.71875 4.128906 -8.476562 4.546875 -8.3125 C 4.960938 -8.144531 5.550781 -7.957031 6.3125 -7.75 C 7.226562 -7.5 7.960938 -7.25 8.515625 -7 C 9.078125 -6.757812 9.554688 -6.378906 9.953125 -5.859375 C 10.359375 -5.347656 10.5625 -4.65625 10.5625 -3.78125 C 10.5625 -3.101562 10.378906 -2.460938 10.015625 -1.859375 C 9.660156 -1.265625 9.128906 -0.78125 8.421875 -0.40625 C 7.722656 -0.0390625 6.894531 0.140625 5.9375 0.140625 Z M 5.9375 0.140625 "/></g></g></g><g fill="#ffffff" fill-opacity="1"><g transform="translate(111.707892, 33.960209)"><g><path d="M 3.34375 -13.890625 L 3.34375 0 L 1.53125 0 L 1.53125 -13.890625 Z M 3.34375 -13.890625 "/></g></g></g><g fill="#ffffff" fill-opacity="1"><g transform="translate(116.606459, 33.960209)"><g><path d="M 10.078125 -13.890625 L 10.078125 -12.40625 L 6.296875 -12.40625 L 6.296875 0 L 4.484375 0 L 4.484375 -12.40625 L 0.671875 -12.40625 L 0.671875 -13.890625 Z M 10.078125 -13.890625 "/></g></g></g><g fill="#ffffff" fill-opacity="1"><g transform="translate(127.379331, 33.960209)"><g><path d="M 3.34375 -12.40625 L 3.34375 -7.765625 L 8.40625 -7.765625 L 8.40625 -6.28125 L 3.34375 -6.28125 L 3.34375 -1.5 L 9 -1.5 L 9 0 L 1.53125 0 L 1.53125 -13.90625 L 9 -13.90625 L 9 -12.40625 Z M 3.34375 -12.40625 "/></g></g></g><g fill="#ffffff" fill-opacity="1"><g transform="translate(137.594655, 33.960209)"><g><path d="M 18.984375 -13.890625 L 14.96875 0 L 12.921875 0 L 9.703125 -11.171875 L 6.359375 0 L 4.34375 0.015625 L 0.453125 -13.890625 L 2.390625 -13.890625 L 5.421875 -2.109375 L 8.765625 -13.890625 L 10.796875 -13.890625 L 13.984375 -2.15625 L 17.03125 -13.890625 Z M 18.984375 -13.890625 "/></g></g></g><g fill="#ffffff" fill-opacity="1"><g transform="translate(157.029642, 33.960209)"><g><path d="M 3.34375 -12.40625 L 3.34375 -7.765625 L 8.40625 -7.765625 L 8.40625 -6.28125 L 3.34375 -6.28125 L 3.34375 -1.5 L 9 -1.5 L 9 0 L 1.53125 0 L 1.53125 -13.90625 L 9 -13.90625 L 9 -12.40625 Z M 3.34375 -12.40625 "/></g></g></g><g fill="#ffffff" fill-opacity="1"><g transform="translate(167.244966, 33.960209)"><g><path d="M 9.734375 -3.09375 L 3.6875 -3.09375 L 2.5625 0 L 0.65625 0 L 5.671875 -13.8125 L 7.765625 -13.8125 L 12.765625 0 L 10.859375 0 Z M 9.21875 -4.5625 L 6.71875 -11.578125 L 4.203125 -4.5625 Z M 9.21875 -4.5625 "/></g></g></g><g fill="#ffffff" fill-opacity="1"><g transform="translate(180.666257, 33.960209)"><g><path d="M 13.015625 -13.890625 L 7.765625 0 L 5.671875 0 L 0.4375 -13.890625 L 2.375 -13.890625 L 6.734375 -1.90625 L 11.09375 -13.890625 Z M 13.015625 -13.890625 "/></g></g></g><g fill="#ffffff" fill-opacity="1"><g transform="translate(194.127371, 33.960209)"><g><path d="M 3.34375 -12.40625 L 3.34375 -7.765625 L 8.40625 -7.765625 L 8.40625 -6.28125 L 3.34375 -6.28125 L 3.34375 -1.5 L 9 -1.5 L 9 0 L 1.53125 0 L 1.53125 -13.90625 L 9 -13.90625 L 9 -12.40625 Z M 3.34375 -12.40625 "/></g></g></g><g fill="#ffffff" fill-opacity="1"><g transform="translate(204.342695, 33.960209)"><g><path d="M 8.84375 0 L 5.53125 -5.671875 L 3.34375 -5.671875 L 3.34375 0 L 1.53125 0 L 1.53125 -13.890625 L 6.015625 -13.890625 C 7.066406 -13.890625 7.953125 -13.707031 8.671875 -13.34375 C 9.398438 -12.988281 9.941406 -12.503906 10.296875 -11.890625 C 10.660156 -11.285156 10.84375 -10.585938 10.84375 -9.796875 C 10.84375 -8.835938 10.566406 -7.992188 10.015625 -7.265625 C 9.460938 -6.535156 8.632812 -6.050781 7.53125 -5.8125 L 11.015625 0 Z M 3.34375 -7.125 L 6.015625 -7.125 C 6.992188 -7.125 7.726562 -7.367188 8.21875 -7.859375 C 8.71875 -8.347656 8.96875 -8.992188 8.96875 -9.796875 C 8.96875 -10.617188 8.722656 -11.253906 8.234375 -11.703125 C 7.753906 -12.160156 7.015625 -12.390625 6.015625 -12.390625 L 3.34375 -12.390625 Z M 3.34375 -7.125 "/></g></g></g><g fill="#ffffff" fill-opacity="1"><g transform="translate(78.281816, 44.464771)"><g><path d="M 0.328125 -2.6875 C 0.328125 -3.207031 0.445312 -3.675781 0.6875 -4.09375 C 0.925781 -4.519531 1.25 -4.847656 1.65625 -5.078125 C 2.0625 -5.316406 2.515625 -5.4375 3.015625 -5.4375 C 3.597656 -5.4375 4.109375 -5.296875 4.546875 -5.015625 C 4.984375 -4.734375 5.300781 -4.332031 5.5 -3.8125 L 4.65625 -3.8125 C 4.507812 -4.132812 4.296875 -4.382812 4.015625 -4.5625 C 3.734375 -4.738281 3.398438 -4.828125 3.015625 -4.828125 C 2.640625 -4.828125 2.300781 -4.738281 2 -4.5625 C 1.707031 -4.382812 1.472656 -4.132812 1.296875 -3.8125 C 1.128906 -3.488281 1.046875 -3.113281 1.046875 -2.6875 C 1.046875 -2.257812 1.128906 -1.882812 1.296875 -1.5625 C 1.472656 -1.25 1.707031 -1.003906 2 -0.828125 C 2.300781 -0.648438 2.640625 -0.5625 3.015625 -0.5625 C 3.398438 -0.5625 3.734375 -0.644531 4.015625 -0.8125 C 4.296875 -0.988281 4.507812 -1.238281 4.65625 -1.5625 L 5.5 -1.5625 C 5.300781 -1.050781 4.984375 -0.65625 4.546875 -0.375 C 4.109375 -0.09375 3.597656 0.046875 3.015625 0.046875 C 2.515625 0.046875 2.0625 -0.0664062 1.65625 -0.296875 C 1.25 -0.535156 0.925781 -0.863281 0.6875 -1.28125 C 0.445312 -1.695312 0.328125 -2.164062 0.328125 -2.6875 Z M 0.328125 -2.6875 "/></g></g></g><g fill="#ffffff" fill-opacity="1"><g transform="translate(84.230811, 44.464771)"><g><path d="M 3.421875 0 L 2.140625 -2.203125 L 1.296875 -2.203125 L 1.296875 0 L 0.59375 0 L 0.59375 -5.375 L 2.328125 -5.375 C 2.734375 -5.375 3.078125 -5.300781 3.359375 -5.15625 C 3.640625 -5.019531 3.847656 -4.832031 3.984375 -4.59375 C 4.117188 -4.363281 4.1875 -4.097656 4.1875 -3.796875 C 4.1875 -3.421875 4.078125 -3.09375 3.859375 -2.8125 C 3.648438 -2.53125 3.332031 -2.34375 2.90625 -2.25 L 4.265625 0 Z M 1.296875 -2.75 L 2.328125 -2.75 C 2.703125 -2.75 2.984375 -2.84375 3.171875 -3.03125 C 3.367188 -3.21875 3.46875 -3.472656 3.46875 -3.796875 C 3.46875 -4.109375 3.375 -4.351562 3.1875 -4.53125 C 3 -4.707031 2.710938 -4.796875 2.328125 -4.796875 L 1.296875 -4.796875 Z M 1.296875 -2.75 "/></g></g></g><g fill="#ffffff" fill-opacity="1"><g transform="translate(88.916028, 44.464771)"><g><path d="M 3.765625 -1.1875 L 1.421875 -1.1875 L 1 0 L 0.25 0 L 2.203125 -5.34375 L 3 -5.34375 L 4.9375 0 L 4.203125 0 Z M 3.5625 -1.765625 L 2.59375 -4.46875 L 1.625 -1.765625 Z M 3.5625 -1.765625 "/></g></g></g><g fill="#ffffff" fill-opacity="1"><g transform="translate(94.109839, 44.464771)"><g><path d="M 3.625 -5.375 L 3.625 -4.796875 L 1.296875 -4.796875 L 1.296875 -2.984375 L 3.1875 -2.984375 L 3.1875 -2.421875 L 1.296875 -2.421875 L 1.296875 0 L 0.59375 0 L 0.59375 -5.375 Z M 3.625 -5.375 "/></g></g></g><g fill="#ffffff" fill-opacity="1"><g transform="translate(97.993642, 44.464771)"><g><path d="M 3.890625 -5.375 L 3.890625 -4.796875 L 2.4375 -4.796875 L 2.4375 0 L 1.734375 0 L 1.734375 -4.796875 L 0.265625 -4.796875 L 0.265625 -5.375 Z M 3.890625 -5.375 "/></g></g></g><g fill="#ffffff" fill-opacity="1"><g transform="translate(102.162564, 44.464771)"><g><path d="M 1.296875 -5.375 L 1.296875 0 L 0.59375 0 L 0.59375 -5.375 Z M 1.296875 -5.375 "/></g></g></g><g fill="#ffffff" fill-opacity="1"><g transform="translate(104.058231, 44.464771)"><g><path d="M 4.8125 0 L 4.109375 0 L 1.296875 -4.28125 L 1.296875 0 L 0.59375 0 L 0.59375 -5.375 L 1.296875 -5.375 L 4.109375 -1.109375 L 4.109375 -5.375 L 4.8125 -5.375 Z M 4.8125 0 "/></g></g></g><g fill="#ffffff" fill-opacity="1"><g transform="translate(109.475518, 44.464771)"><g><path d="M 4.65625 -3.8125 C 4.507812 -4.125 4.296875 -4.363281 4.015625 -4.53125 C 3.734375 -4.707031 3.40625 -4.796875 3.03125 -4.796875 C 2.65625 -4.796875 2.316406 -4.707031 2.015625 -4.53125 C 1.710938 -4.363281 1.472656 -4.117188 1.296875 -3.796875 C 1.128906 -3.472656 1.046875 -3.101562 1.046875 -2.6875 C 1.046875 -2.269531 1.128906 -1.898438 1.296875 -1.578125 C 1.472656 -1.253906 1.710938 -1.003906 2.015625 -0.828125 C 2.316406 -0.660156 2.65625 -0.578125 3.03125 -0.578125 C 3.550781 -0.578125 3.976562 -0.734375 4.3125 -1.046875 C 4.65625 -1.367188 4.859375 -1.796875 4.921875 -2.328125 L 2.765625 -2.328125 L 2.765625 -2.890625 L 5.65625 -2.890625 L 5.65625 -2.359375 C 5.613281 -1.910156 5.472656 -1.503906 5.234375 -1.140625 C 5.003906 -0.773438 4.695312 -0.484375 4.3125 -0.265625 C 3.925781 -0.0546875 3.5 0.046875 3.03125 0.046875 C 2.53125 0.046875 2.070312 -0.0664062 1.65625 -0.296875 C 1.25 -0.535156 0.925781 -0.863281 0.6875 -1.28125 C 0.445312 -1.695312 0.328125 -2.164062 0.328125 -2.6875 C 0.328125 -3.207031 0.445312 -3.675781 0.6875 -4.09375 C 0.925781 -4.519531 1.25 -4.847656 1.65625 -5.078125 C 2.070312 -5.316406 2.53125 -5.4375 3.03125 -5.4375 C 3.59375 -5.4375 4.09375 -5.289062 4.53125 -5 C 4.976562 -4.71875 5.300781 -4.320312 5.5 -3.8125 Z M 4.65625 -3.8125 "/></g></g></g><g fill="#ffffff" fill-opacity="1"><g transform="translate(115.470742, 44.464771)"><g/></g></g><g fill="#ffffff" fill-opacity="1"><g transform="translate(117.528233, 44.464771)"><g><path d="M 4.359375 -5.375 L 2.609375 -2.03125 L 2.609375 0 L 1.90625 0 L 1.90625 -2.03125 L 0.140625 -5.375 L 0.921875 -5.375 L 2.25 -2.65625 L 3.578125 -5.375 Z M 4.359375 -5.375 "/></g></g></g><g fill="#ffffff" fill-opacity="1"><g transform="translate(122.028512, 44.464771)"><g><path d="M 3.03125 0.046875 C 2.53125 0.046875 2.070312 -0.0664062 1.65625 -0.296875 C 1.25 -0.523438 0.925781 -0.847656 0.6875 -1.265625 C 0.445312 -1.691406 0.328125 -2.164062 0.328125 -2.6875 C 0.328125 -3.207031 0.445312 -3.675781 0.6875 -4.09375 C 0.925781 -4.519531 1.25 -4.847656 1.65625 -5.078125 C 2.070312 -5.316406 2.53125 -5.4375 3.03125 -5.4375 C 3.53125 -5.4375 3.984375 -5.316406 4.390625 -5.078125 C 4.804688 -4.847656 5.128906 -4.523438 5.359375 -4.109375 C 5.597656 -3.691406 5.71875 -3.21875 5.71875 -2.6875 C 5.71875 -2.15625 5.597656 -1.679688 5.359375 -1.265625 C 5.128906 -0.847656 4.804688 -0.523438 4.390625 -0.296875 C 3.984375 -0.0664062 3.53125 0.046875 3.03125 0.046875 Z M 3.03125 -0.546875 C 3.40625 -0.546875 3.738281 -0.632812 4.03125 -0.8125 C 4.332031 -0.988281 4.566406 -1.238281 4.734375 -1.5625 C 4.910156 -1.882812 5 -2.257812 5 -2.6875 C 5 -3.113281 4.910156 -3.488281 4.734375 -3.8125 C 4.566406 -4.132812 4.332031 -4.382812 4.03125 -4.5625 C 3.738281 -4.738281 3.40625 -4.828125 3.03125 -4.828125 C 2.644531 -4.828125 2.300781 -4.738281 2 -4.5625 C 1.707031 -4.382812 1.472656 -4.132812 1.296875 -3.8125 C 1.128906 -3.488281 1.046875 -3.113281 1.046875 -2.6875 C 1.046875 -2.257812 1.128906 -1.882812 1.296875 -1.5625 C 1.472656 -1.238281 1.710938 -0.988281 2.015625 -0.8125 C 2.316406 -0.632812 2.65625 -0.546875 3.03125 -0.546875 Z M 3.03125 -0.546875 "/></g></g></g><g fill="#ffffff" fill-opacity="1"><g transform="translate(128.085389, 44.464771)"><g><path d="M 1.28125 -5.375 L 1.28125 -1.96875 C 1.28125 -1.488281 1.394531 -1.132812 1.625 -0.90625 C 1.863281 -0.675781 2.191406 -0.5625 2.609375 -0.5625 C 3.015625 -0.5625 3.332031 -0.675781 3.5625 -0.90625 C 3.800781 -1.132812 3.921875 -1.488281 3.921875 -1.96875 L 3.921875 -5.375 L 4.625 -5.375 L 4.625 -1.984375 C 4.625 -1.535156 4.53125 -1.15625 4.34375 -0.84375 C 4.164062 -0.539062 3.925781 -0.316406 3.625 -0.171875 C 3.320312 -0.0234375 2.976562 0.046875 2.59375 0.046875 C 2.21875 0.046875 1.875 -0.0234375 1.5625 -0.171875 C 1.257812 -0.316406 1.019531 -0.539062 0.84375 -0.84375 C 0.664062 -1.15625 0.578125 -1.535156 0.578125 -1.984375 L 0.578125 -5.375 Z M 1.28125 -5.375 "/></g></g></g><g fill="#ffffff" fill-opacity="1"><g transform="translate(133.286902, 44.464771)"><g><path d="M 3.421875 0 L 2.140625 -2.203125 L 1.296875 -2.203125 L 1.296875 0 L 0.59375 0 L 0.59375 -5.375 L 2.328125 -5.375 C 2.734375 -5.375 3.078125 -5.300781 3.359375 -5.15625 C 3.640625 -5.019531 3.847656 -4.832031 3.984375 -4.59375 C 4.117188 -4.363281 4.1875 -4.097656 4.1875 -3.796875 C 4.1875 -3.421875 4.078125 -3.09375 3.859375 -2.8125 C 3.648438 -2.53125 3.332031 -2.34375 2.90625 -2.25 L 4.265625 0 Z M 1.296875 -2.75 L 2.328125 -2.75 C 2.703125 -2.75 2.984375 -2.84375 3.171875 -3.03125 C 3.367188 -3.21875 3.46875 -3.472656 3.46875 -3.796875 C 3.46875 -4.109375 3.375 -4.351562 3.1875 -4.53125 C 3 -4.707031 2.710938 -4.796875 2.328125 -4.796875 L 1.296875 -4.796875 Z M 1.296875 -2.75 "/></g></g></g><g fill="#ffffff" fill-opacity="1"><g transform="translate(137.972119, 44.464771)"><g/></g></g><g fill="#ffffff" fill-opacity="1"><g transform="translate(140.029609, 44.464771)"><g><path d="M 3.03125 0.046875 C 2.53125 0.046875 2.070312 -0.0664062 1.65625 -0.296875 C 1.25 -0.523438 0.925781 -0.847656 0.6875 -1.265625 C 0.445312 -1.691406 0.328125 -2.164062 0.328125 -2.6875 C 0.328125 -3.207031 0.445312 -3.675781 0.6875 -4.09375 C 0.925781 -4.519531 1.25 -4.847656 1.65625 -5.078125 C 2.070312 -5.316406 2.53125 -5.4375 3.03125 -5.4375 C 3.53125 -5.4375 3.984375 -5.316406 4.390625 -5.078125 C 4.804688 -4.847656 5.128906 -4.523438 5.359375 -4.109375 C 5.597656 -3.691406 5.71875 -3.21875 5.71875 -2.6875 C 5.71875 -2.15625 5.597656 -1.679688 5.359375 -1.265625 C 5.128906 -0.847656 4.804688 -0.523438 4.390625 -0.296875 C 3.984375 -0.0664062 3.53125 0.046875 3.03125 0.046875 Z M 3.03125 -0.546875 C 3.40625 -0.546875 3.738281 -0.632812 4.03125 -0.8125 C 4.332031 -0.988281 4.566406 -1.238281 4.734375 -1.5625 C 4.910156 -1.882812 5 -2.257812 5 -2.6875 C 5 -3.113281 4.910156 -3.488281 4.734375 -3.8125 C 4.566406 -4.132812 4.332031 -4.382812 4.03125 -4.5625 C 3.738281 -4.738281 3.40625 -4.828125 3.03125 -4.828125 C 2.644531 -4.828125 2.300781 -4.738281 2 -4.5625 C 1.707031 -4.382812 1.472656 -4.132812 1.296875 -3.8125 C 1.128906 -3.488281 1.046875 -3.113281 1.046875 -2.6875 C 1.046875 -2.257812 1.128906 -1.882812 1.296875 -1.5625 C 1.472656 -1.238281 1.710938 -0.988281 2.015625 -0.8125 C 2.316406 -0.632812 2.65625 -0.546875 3.03125 -0.546875 Z M 3.03125 -0.546875 "/></g></g></g><g fill="#ffffff" fill-opacity="1"><g transform="translate(146.086486, 44.464771)"><g><path d="M 4.8125 0 L 4.109375 0 L 1.296875 -4.28125 L 1.296875 0 L 0.59375 0 L 0.59375 -5.375 L 1.296875 -5.375 L 4.109375 -1.109375 L 4.109375 -5.375 L 4.8125 -5.375 Z M 4.8125 0 "/></g></g></g><g fill="#ffffff" fill-opacity="1"><g transform="translate(151.503773, 44.464771)"><g><path d="M 1.296875 -0.5625 L 3.171875 -0.5625 L 3.171875 0 L 0.59375 0 L 0.59375 -5.375 L 1.296875 -5.375 Z M 1.296875 -0.5625 "/></g></g></g><g fill="#ffffff" fill-opacity="1"><g transform="translate(154.832743, 44.464771)"><g><path d="M 1.296875 -5.375 L 1.296875 0 L 0.59375 0 L 0.59375 -5.375 Z M 1.296875 -5.375 "/></g></g></g><g fill="#ffffff" fill-opacity="1"><g transform="translate(156.72841, 44.464771)"><g><path d="M 4.8125 0 L 4.109375 0 L 1.296875 -4.28125 L 1.296875 0 L 0.59375 0 L 0.59375 -5.375 L 1.296875 -5.375 L 4.109375 -1.109375 L 4.109375 -5.375 L 4.8125 -5.375 Z M 4.8125 0 "/></g></g></g><g fill="#ffffff" fill-opacity="1"><g transform="translate(162.145697, 44.464771)"><g><path d="M 1.296875 -4.796875 L 1.296875 -3 L 3.25 -3 L 3.25 -2.421875 L 1.296875 -2.421875 L 1.296875 -0.578125 L 3.484375 -0.578125 L 3.484375 0 L 0.59375 0 L 0.59375 -5.375 L 3.484375 -5.375 L 3.484375 -4.796875 Z M 1.296875 -4.796875 "/></g></g></g><g fill="#ffffff" fill-opacity="1"><g transform="translate(166.098845, 44.464771)"><g/></g></g><g fill="#ffffff" fill-opacity="1"><g transform="translate(168.156335, 44.464771)"><g><path d="M 4.1875 -3.796875 C 4.1875 -3.347656 4.03125 -2.972656 3.71875 -2.671875 C 3.414062 -2.378906 2.953125 -2.234375 2.328125 -2.234375 L 1.296875 -2.234375 L 1.296875 0 L 0.59375 0 L 0.59375 -5.375 L 2.328125 -5.375 C 2.929688 -5.375 3.390625 -5.222656 3.703125 -4.921875 C 4.023438 -4.628906 4.1875 -4.253906 4.1875 -3.796875 Z M 2.328125 -2.8125 C 2.710938 -2.8125 3 -2.894531 3.1875 -3.0625 C 3.375 -3.238281 3.46875 -3.484375 3.46875 -3.796875 C 3.46875 -4.460938 3.085938 -4.796875 2.328125 -4.796875 L 1.296875 -4.796875 L 1.296875 -2.8125 Z M 2.328125 -2.8125 "/></g></g></g><g fill="#ffffff" fill-opacity="1"><g transform="translate(172.618076, 44.464771)"><g><path d="M 3.421875 0 L 2.140625 -2.203125 L 1.296875 -2.203125 L 1.296875 0 L 0.59375 0 L 0.59375 -5.375 L 2.328125 -5.375 C 2.734375 -5.375 3.078125 -5.300781 3.359375 -5.15625 C 3.640625 -5.019531 3.847656 -4.832031 3.984375 -4.59375 C 4.117188 -4.363281 4.1875 -4.097656 4.1875 -3.796875 C 4.1875 -3.421875 4.078125 -3.09375 3.859375 -2.8125 C 3.648438 -2.53125 3.332031 -2.34375 2.90625 -2.25 L 4.265625 0 Z M 1.296875 -2.75 L 2.328125 -2.75 C 2.703125 -2.75 2.984375 -2.84375 3.171875 -3.03125 C 3.367188 -3.21875 3.46875 -3.472656 3.46875 -3.796875 C 3.46875 -4.109375 3.375 -4.351562 3.1875 -4.53125 C 3 -4.707031 2.710938 -4.796875 2.328125 -4.796875 L 1.296875 -4.796875 Z M 1.296875 -2.75 "/></g></g></g><g fill="#ffffff" fill-opacity="1"><g transform="translate(177.303293, 44.464771)"><g><path d="M 1.296875 -4.796875 L 1.296875 -3 L 3.25 -3 L 3.25 -2.421875 L 1.296875 -2.421875 L 1.296875 -0.578125 L 3.484375 -0.578125 L 3.484375 0 L 0.59375 0 L 0.59375 -5.375 L 3.484375 -5.375 L 3.484375 -4.796875 Z M 1.296875 -4.796875 "/></g></g></g><g fill="#ffffff" fill-opacity="1"><g transform="translate(181.256441, 44.464771)"><g><path d="M 2.296875 0.046875 C 1.941406 0.046875 1.625 -0.015625 1.34375 -0.140625 C 1.0625 -0.265625 0.84375 -0.4375 0.6875 -0.65625 C 0.53125 -0.882812 0.445312 -1.144531 0.4375 -1.4375 L 1.1875 -1.4375 C 1.207031 -1.1875 1.304688 -0.972656 1.484375 -0.796875 C 1.671875 -0.628906 1.941406 -0.546875 2.296875 -0.546875 C 2.628906 -0.546875 2.890625 -0.628906 3.078125 -0.796875 C 3.273438 -0.960938 3.375 -1.175781 3.375 -1.4375 C 3.375 -1.632812 3.316406 -1.796875 3.203125 -1.921875 C 3.085938 -2.054688 2.945312 -2.15625 2.78125 -2.21875 C 2.613281 -2.289062 2.382812 -2.363281 2.09375 -2.4375 C 1.738281 -2.53125 1.453125 -2.625 1.234375 -2.71875 C 1.023438 -2.8125 0.84375 -2.957031 0.6875 -3.15625 C 0.539062 -3.351562 0.46875 -3.617188 0.46875 -3.953125 C 0.46875 -4.242188 0.539062 -4.5 0.6875 -4.71875 C 0.84375 -4.945312 1.050781 -5.125 1.3125 -5.25 C 1.582031 -5.375 1.894531 -5.4375 2.25 -5.4375 C 2.75 -5.4375 3.160156 -5.3125 3.484375 -5.0625 C 3.804688 -4.8125 3.988281 -4.476562 4.03125 -4.0625 L 3.265625 -4.0625 C 3.234375 -4.269531 3.125 -4.453125 2.9375 -4.609375 C 2.75 -4.765625 2.5 -4.84375 2.1875 -4.84375 C 1.882812 -4.84375 1.640625 -4.765625 1.453125 -4.609375 C 1.273438 -4.460938 1.1875 -4.25 1.1875 -3.96875 C 1.1875 -3.78125 1.238281 -3.625 1.34375 -3.5 C 1.457031 -3.375 1.59375 -3.28125 1.75 -3.21875 C 1.914062 -3.15625 2.144531 -3.082031 2.4375 -3 C 2.789062 -2.894531 3.078125 -2.796875 3.296875 -2.703125 C 3.515625 -2.609375 3.695312 -2.460938 3.84375 -2.265625 C 4 -2.066406 4.078125 -1.800781 4.078125 -1.46875 C 4.078125 -1.207031 4.007812 -0.957031 3.875 -0.71875 C 3.738281 -0.488281 3.53125 -0.300781 3.25 -0.15625 C 2.976562 -0.0195312 2.660156 0.046875 2.296875 0.046875 Z M 2.296875 0.046875 "/></g></g></g><g fill="#ffffff" fill-opacity="1"><g transform="translate(185.779835, 44.464771)"><g><path d="M 1.296875 -4.796875 L 1.296875 -3 L 3.25 -3 L 3.25 -2.421875 L 1.296875 -2.421875 L 1.296875 -0.578125 L 3.484375 -0.578125 L 3.484375 0 L 0.59375 0 L 0.59375 -5.375 L 3.484375 -5.375 L 3.484375 -4.796875 Z M 1.296875 -4.796875 "/></g></g></g><g fill="#ffffff" fill-opacity="1"><g transform="translate(189.732983, 44.464771)"><g><path d="M 4.8125 0 L 4.109375 0 L 1.296875 -4.28125 L 1.296875 0 L 0.59375 0 L 0.59375 -5.375 L 1.296875 -5.375 L 4.109375 -1.109375 L 4.109375 -5.375 L 4.8125 -5.375 Z M 4.8125 0 "/></g></g></g><g fill="#ffffff" fill-opacity="1"><g transform="translate(195.150269, 44.464771)"><g><path d="M 0.328125 -2.6875 C 0.328125 -3.207031 0.445312 -3.675781 0.6875 -4.09375 C 0.925781 -4.519531 1.25 -4.847656 1.65625 -5.078125 C 2.0625 -5.316406 2.515625 -5.4375 3.015625 -5.4375 C 3.597656 -5.4375 4.109375 -5.296875 4.546875 -5.015625 C 4.984375 -4.734375 5.300781 -4.332031 5.5 -3.8125 L 4.65625 -3.8125 C 4.507812 -4.132812 4.296875 -4.382812 4.015625 -4.5625 C 3.734375 -4.738281 3.398438 -4.828125 3.015625 -4.828125 C 2.640625 -4.828125 2.300781 -4.738281 2 -4.5625 C 1.707031 -4.382812 1.472656 -4.132812 1.296875 -3.8125 C 1.128906 -3.488281 1.046875 -3.113281 1.046875 -2.6875 C 1.046875 -2.257812 1.128906 -1.882812 1.296875 -1.5625 C 1.472656 -1.25 1.707031 -1.003906 2 -0.828125 C 2.300781 -0.648438 2.640625 -0.5625 3.015625 -0.5625 C 3.398438 -0.5625 3.734375 -0.644531 4.015625 -0.8125 C 4.296875 -0.988281 4.507812 -1.238281 4.65625 -1.5625 L 5.5 -1.5625 C 5.300781 -1.050781 4.984375 -0.65625 4.546875 -0.375 C 4.109375 -0.09375 3.597656 0.046875 3.015625 0.046875 C 2.515625 0.046875 2.0625 -0.0664062 1.65625 -0.296875 C 1.25 -0.535156 0.925781 -0.863281 0.6875 -1.28125 C 0.445312 -1.695312 0.328125 -2.164062 0.328125 -2.6875 Z M 0.328125 -2.6875 "/></g></g></g><g fill="#ffffff" fill-opacity="1"><g transform="translate(201.099265, 44.464771)"><g><path d="M 1.296875 -4.796875 L 1.296875 -3 L 3.25 -3 L 3.25 -2.421875 L 1.296875 -2.421875 L 1.296875 -0.578125 L 3.484375 -0.578125 L 3.484375 0 L 0.59375 0 L 0.59375 -5.375 L 3.484375 -5.375 L 3.484375 -4.796875 Z M 1.296875 -4.796875 "/></g></g></g></svg>